<?xml version="1.0"?>
<Project_Data Version="8.00">
<Project_Settings>
<ProfileName>MP4 only (up to 720p)</ProfileName>
<ProjectWidth>1280</ProjectWidth>
<ProjectHeight>720</ProjectHeight>
<IsCustomProject>0</IsCustomProject>
<SavedProjectSettings>1</SavedProjectSettings>
<LastFlashTemplate>-1</LastFlashTemplate>
</Project_Settings>


<AutoSaveFile>C:\Users\correll\AppData\Local\TechSmith\Camtasia Studio\8.0\Auto-Saves\iros1b811361.autosave.camproj</AutoSaveFile>

<ProjectID>C708D761-2F49-4A1D-8DC1-624CBF93B12D</ProjectID>

<PowerPointProject>0</PowerPointProject>

<PowerPointFilename></PowerPointFilename>


<Project_Notes>
</Project_Notes>

<Project_MetaData>
<Project_MetaData_Object>
<FieldArrayKey>8</FieldArrayKey>
<Value>iros</Value>
</Project_MetaData_Object>
<Project_MetaData_Object>
<FieldArrayKey>13</FieldArrayKey>
<Value>2014-02-11 03:01:56 PM</Value>
</Project_MetaData_Object>
<Project_MetaData_Object>
<FieldArrayKey>16</FieldArrayKey>
<Value>ENU</Value>
</Project_MetaData_Object>
</Project_MetaData>

<CSMLData>
<GoProject id="1" version="3.0" >
 <Project id="2" editRate="30/1" version="3.0" >
  <Author></Author>
  <Comment></Comment>
  <System></System>
  <SourceBin id="3"  >
    <Source id="4" src="C:\Users\correll\Desktop\work\papers\SUBMITTED\parameter_opt_paper\video\baxter_playback_movie.mp4" lastMod="20140212T003522" rect="(0,0,1920,1080)" >
      <SourceTrack range="(0,243666667)" type="0" editRate="10000000/1" trackRect="(0,0,1920,1080)" sampleRate="5000000/166679" bitDepth="24" numChannels="0" filename="" metaData="" />
      <SourceTrack range="(0,243666667)" type="2" editRate="10000000/1" trackRect="(0,0,0,0)" sampleRate="48000/1" bitDepth="16" numChannels="2" filename="" metaData="" />
    </Source>
    <Source id="5" src="C:\Users\correll\Desktop\work\papers\SUBMITTED\parameter_opt_paper\video\Boulder-FL-master.png" lastMod="20140212T003509" rect="(0,0,396,80)" >
      <SourceTrack range="(0,1)" type="1" editRate="10000000/1" trackRect="(0,0,396,80)" sampleRate="0/1" bitDepth="8" numChannels="0" filename="" metaData="" />
    </Source>
    <Source id="6" src="C:\Users\correll\Desktop\work\papers\SUBMITTED\parameter_opt_paper\video\convergence.png" lastMod="20140212T021840" rect="(0,0,1600,1200)" >
      <SourceTrack range="(0,1)" type="1" editRate="10000000/1" trackRect="(0,0,1600,1200)" sampleRate="0/1" bitDepth="24" numChannels="0" filename="" metaData="" />
    </Source>
    <Source id="7" src="C:\Users\correll\Desktop\work\papers\SUBMITTED\parameter_opt_paper\video\paths12.png" lastMod="20140212T021959" rect="(0,0,1000,775)" >
      <SourceTrack range="(0,1)" type="1" editRate="10000000/1" trackRect="(0,0,1000,775)" sampleRate="0/1" bitDepth="24" numChannels="0" filename="" metaData="" />
    </Source>
    <Source id="8" src="C:\Users\correll\Desktop\work\papers\SUBMITTED\parameter_opt_paper\video\init_bloop.png" lastMod="20140212T025149" rect="(0,0,592,704)" >
      <SourceTrack range="(0,1)" type="1" editRate="10000000/1" trackRect="(0,0,592,704)" sampleRate="0/1" bitDepth="24" numChannels="0" filename="" metaData="" />
    </Source>
    <Source id="9" src="C:\Users\correll\Desktop\work\papers\SUBMITTED\parameter_opt_paper\video\loop.png" lastMod="20140212T025712" rect="(0,0,671,193)" >
      <SourceTrack range="(0,1)" type="1" editRate="10000000/1" trackRect="(0,0,671,193)" sampleRate="0/1" bitDepth="32" numChannels="0" filename="" metaData="" />
    </Source>
    <Source id="10" src="C:\Users\correll\Desktop\work\papers\SUBMITTED\parameter_opt_paper\video\boulder.jpg" lastMod="20140212T031419" rect="(0,0,1500,994)" >
      <SourceTrack range="(0,1)" type="1" editRate="10000000/1" trackRect="(0,0,1500,994)" sampleRate="0/1" bitDepth="24" numChannels="0" filename="" metaData="" />
    </Source>
    <Source id="11" src="C:\Users\correll\Desktop\work\papers\SUBMITTED\parameter_opt_paper\video\NASA_logo.svg.png" lastMod="20140212T032217" rect="(0,0,290,240)" >
      <SourceTrack range="(0,1)" type="1" editRate="10000000/1" trackRect="(0,0,290,240)" sampleRate="0/1" bitDepth="32" numChannels="0" filename="" metaData="" />
    </Source>
    <Source id="12" src="C:\Users\correll\Desktop\work\papers\SUBMITTED\parameter_opt_paper\video\baxter_loop_sim4_25fps.mp4" lastMod="20140212T035927" rect="(0,0,800,768)" >
      <SourceTrack range="(0,200333333)" type="0" editRate="10000000/1" trackRect="(0,0,800,768)" sampleRate="10000000/399999" bitDepth="24" numChannels="0" filename="" metaData="" />
    </Source>
    <Source id="13" src="C:\Users\correll\Desktop\work\papers\SUBMITTED\parameter_opt_paper\video\intro.wav" lastMod="20140212T041734" rect="(0,0,0,0)" >
      <SourceTrack range="(0,47333333)" type="2" editRate="10000000/1" trackRect="(0,0,0,0)" sampleRate="22050/1" bitDepth="16" numChannels="1" filename="" metaData="" />
    </Source>
    <Source id="14" src="C:\Users\correll\Desktop\work\papers\SUBMITTED\parameter_opt_paper\video\intro2.wav" lastMod="20140212T041901" rect="(0,0,0,0)" >
      <SourceTrack range="(0,78666667)" type="2" editRate="10000000/1" trackRect="(0,0,0,0)" sampleRate="22050/1" bitDepth="16" numChannels="1" filename="" metaData="" />
    </Source>
    <Source id="15" src="C:\Users\correll\Desktop\work\papers\SUBMITTED\parameter_opt_paper\video\approach.wav" lastMod="20140212T041930" rect="(0,0,0,0)" >
      <SourceTrack range="(0,57333333)" type="2" editRate="10000000/1" trackRect="(0,0,0,0)" sampleRate="22050/1" bitDepth="16" numChannels="1" filename="" metaData="" />
    </Source>
    <Source id="16" src="C:\Users\correll\Desktop\work\papers\SUBMITTED\parameter_opt_paper\video\method.wav" lastMod="20140212T042128" rect="(0,0,0,0)" >
      <SourceTrack range="(0,182333333)" type="2" editRate="10000000/1" trackRect="(0,0,0,0)" sampleRate="22050/1" bitDepth="16" numChannels="1" filename="" metaData="" />
    </Source>
    <Source id="17" src="C:\Users\correll\Desktop\work\papers\SUBMITTED\parameter_opt_paper\video\results.wav" lastMod="20140212T042247" rect="(0,0,0,0)" >
      <SourceTrack range="(0,121333333)" type="2" editRate="10000000/1" trackRect="(0,0,0,0)" sampleRate="22050/1" bitDepth="16" numChannels="1" filename="" metaData="" />
    </Source>
    <Source id="18" src="C:\Users\correll\Desktop\work\papers\SUBMITTED\parameter_opt_paper\video\plant.jpg" lastMod="20140212T042841" rect="(0,0,225,225)" >
      <SourceTrack range="(0,1)" type="1" editRate="10000000/1" trackRect="(0,0,225,225)" sampleRate="0/1" bitDepth="24" numChannels="0" filename="" metaData="" />
    </Source>
    <Source id="19" src="C:\Users\correll\Desktop\work\papers\SUBMITTED\parameter_opt_paper\video\tube.jpg" lastMod="20140212T042827" rect="(0,0,224,224)" >
      <SourceTrack range="(0,1)" type="1" editRate="10000000/1" trackRect="(0,0,224,224)" sampleRate="0/1" bitDepth="24" numChannels="0" filename="" metaData="" />
    </Source>
  </SourceBin>
  <Timeline id="20"  >
   <Attributes>
    <Attribute id="21" value="1280" name="width"/>
    <Attribute id="22" value="720" name="height"/>
    <Attribute id="23" value="(255,255,255,255)" name="backgroundColor"/>
   </Attributes>
    <GenericMixer id="24"  name="Unified Mixer">
     <MetaData>
      <entry key="MixerType" val="TimelineMixer"/>
     </MetaData>
     <Tracks>
      <GenericTrack id="25"  >
       <Attributes>
        <Attribute id="26" value="" name="ident"/>
       </Attributes>
       <MetaData>
        <entry key="IsLocked" val="False"/>
        <entry key="WinTrackHeight" val="40.52272727272728"/>
       </MetaData>
       <Medias>
        <UnifiedMedia id="27"  >
         <AudioTransition id="28" start="0" duration="30" >
          <Parameters>
           <InterpolatingParam id="29" interp="linr"  time="0/1" value="1" leadInLength="0/1"  name="volume"/>
           <Parameter id="30"  name="captions"/>
          </Parameters>
          <Effects>
           <GenericEffect id="31" name = "AudioTransition" >
            <Parameters>
            <Parameter id="32"   name="audioEdgeModType">
             <Keyframes>
             <Keyframe id="33"  time="0/1" value="0" leadInLength="0/1"  />
             </Keyframes>
            </Parameter>
            <Parameter id="34"   name="audioTransitionType">
             <Keyframes>
             <Keyframe id="35"  time="0/1" value="" leadInLength="0/1"  />
             </Keyframes>
            </Parameter>
            </Parameters>
            <MetaData>
            </MetaData>
           </GenericEffect>
          </Effects>
          <Attributes>
           <Attribute id="36" value="" name="ident"/>
           <Attribute id="37" value="0" name="sampleRate"/>
           <Attribute id="38" value="0" name="bitDepth"/>
           <Attribute id="39" value="1" name="gain"/>
          </Attributes>
         </AudioTransition>
         <ImageTransition id="40" start="0" duration="30" >
          <Transformer>
           <VectorParam id="41"  name="translation">
            <InterpolatingParam id="42" interp="linr"  time="0/1" value="0" leadInLength="0/1"  />
            <InterpolatingParam id="43" interp="linr"  time="0/1" value="0" leadInLength="0/1"  />
            <InterpolatingParam id="44" interp="linr"  time="0/1" value="0" leadInLength="0/1"  />
           </VectorParam>
           <VectorParam id="45"  name="rotation">
            <InterpolatingParam id="46" interp="linr"  time="0/1" value="0" leadInLength="0/1"  />
            <InterpolatingParam id="47" interp="linr"  time="0/1" value="0" leadInLength="0/1"  />
            <InterpolatingParam id="48" interp="linr"  time="0/1" value="0" leadInLength="0/1"  />
           </VectorParam>
           <VectorParam id="49"  name="shear">
            <InterpolatingParam id="50" interp="linr"  time="0/1" value="0" leadInLength="0/1"  />
            <InterpolatingParam id="51" interp="linr"  time="0/1" value="0" leadInLength="0/1"  />
            <InterpolatingParam id="52" interp="linr"  time="0/1" value="0" leadInLength="0/1"  />
           </VectorParam>
           <VectorParam id="53"  name="scale">
            <InterpolatingParam id="54" interp="linr"  time="0/1" value="1" leadInLength="0/1"  />
            <InterpolatingParam id="55" interp="linr"  time="0/1" value="1" leadInLength="0/1"  />
            <InterpolatingParam id="56" interp="linr"  time="0/1" value="1" leadInLength="0/1"  />
           </VectorParam>
           <VectorParam id="57"  name="anchor">
            <InterpolatingParam id="58" interp="linr"  time="0/1" value="0" leadInLength="0/1"  />
            <InterpolatingParam id="59" interp="linr"  time="0/1" value="0" leadInLength="0/1"  />
            <InterpolatingParam id="60" interp="linr"  time="0/1" value="0" leadInLength="0/1"  />
           </VectorParam>
          </Transformer>
          <Parameters>
           <VectorParam id="61"  name="sourceCrop">
            <InterpolatingParam id="62" interp="linr"  time="0/1" value="0" leadInLength="0/1"  />
            <InterpolatingParam id="63" interp="linr"  time="0/1" value="0" leadInLength="0/1"  />
            <InterpolatingParam id="64" interp="linr"  time="0/1" value="0" leadInLength="0/1"  />
            <InterpolatingParam id="65" interp="linr"  time="0/1" value="0" leadInLength="0/1"  />
           </VectorParam>
           <VectorParam id="66"  name="geometryCrop">
            <InterpolatingParam id="67" interp="linr"  time="0/1" value="0" leadInLength="0/1"  />
            <InterpolatingParam id="68" interp="linr"  time="0/1" value="0" leadInLength="0/1"  />
            <InterpolatingParam id="69" interp="linr"  time="0/1" value="0" leadInLength="0/1"  />
            <InterpolatingParam id="70" interp="linr"  time="0/1" value="0" leadInLength="0/1"  />
           </VectorParam>
           <InterpolatingParam id="71" interp="linr"  time="0/1" value="1" leadInLength="0/1"  name="opacity"/>
          </Parameters>
          <Effects>
           <GenericEffect id="72" name = "VisualTransition" >
            <Parameters>
            <InterpolatingParam id="73" interp="linr"  time="0/1" value="0.5" leadInLength="0/1"   name="leftFramePercentage"/>
            <InterpolatingParam id="74" interp="linr"  time="0/1" value="0.5" leadInLength="0/1"   name="rightFramePercentage"/>
            <Parameter id="75"   name="visualEdgeModType">
             <Keyframes>
             <Keyframe id="76"  time="0/1" value="1" leadInLength="0/1"  />
             </Keyframes>
            </Parameter>
            <Parameter id="77"   name="visualTransitionType">
             <Keyframes>
             <Keyframe id="78"  time="0/1" value="Fade" leadInLength="0/1"  />
             </Keyframes>
            </Parameter>
            </Parameters>
            <MetaData>
            </MetaData>
           </GenericEffect>
          </Effects>
          <Attributes>
           <Attribute id="79" value="" name="ident"/>
          </Attributes>
          <ExtraData>
           <Entry key="ZoomPanBin">
            <ZoomPanBin id="80"  >
             <ZoomPanKeyframes>
             </ZoomPanKeyframes>
            </ZoomPanBin>
           </Entry>
          </ExtraData>
         </ImageTransition>
         <MetaData>
          <entry key="WinSubProjectDisplayName" val=""/>
         </MetaData>
        </UnifiedMedia>
        <Group id="81" start="30" duration="165" scalar="1" mediaStart="30" mediaDuration="165" baseWidthAttr="0" baseHeightAttr="0"  >
         <Parameters>
          <VectorParam id="82"  name="sourceCrop">
           <InterpolatingParam id="83" interp="linr"  time="0/1" value="0" leadInLength="0/1"  />
           <InterpolatingParam id="84" interp="linr"  time="0/1" value="0" leadInLength="0/1"  />
           <InterpolatingParam id="85" interp="linr"  time="0/1" value="0" leadInLength="0/1"  />
           <InterpolatingParam id="86" interp="linr"  time="0/1" value="0" leadInLength="0/1"  />
          </VectorParam>
          <VectorParam id="87"  name="geometryCrop">
           <InterpolatingParam id="88" interp="linr"  time="-9999999/1" value="0" leadInLength="0/1"  />
           <InterpolatingParam id="89" interp="linr"  time="-9999999/1" value="0" leadInLength="0/1"  />
           <InterpolatingParam id="90" interp="linr"  time="-9999999/1" value="0" leadInLength="0/1"  />
           <InterpolatingParam id="91" interp="linr"  time="-9999999/1" value="0" leadInLength="0/1"  />
          </VectorParam>
          <InterpolatingParam id="92" interp="linr"  time="-9999999/1" value="1" leadInLength="0/1"  name="opacity"/>
          <Parameter id="93"  name="captions"/>
          <InterpolatingParam id="94" interp="linr"  time="0/1" value="1" leadInLength="0/1"  name="volume"/>
         </Parameters>
         <Transformer>
          <VectorParam id="95"  name="translation">
           <InterpolatingParam id="96" interp="linr"  time="-9999999/1" value="-12" leadInLength="0/1"  />
           <InterpolatingParam id="97" interp="linr"  time="-9999999/1" value="-29.5" leadInLength="0/1"  />
           <InterpolatingParam id="98" interp="linr"  time="-9999999/1" value="0" leadInLength="0/1"  />
          </VectorParam>
          <VectorParam id="99"  name="rotation">
           <InterpolatingParam id="100" interp="linr"  time="-9999999/1" value="0" leadInLength="0/1"  />
           <InterpolatingParam id="101" interp="linr"  time="-9999999/1" value="0" leadInLength="0/1"  />
           <InterpolatingParam id="102" interp="linr"  time="-9999999/1" value="0" leadInLength="0/1"  />
          </VectorParam>
          <VectorParam id="103"  name="shear">
           <InterpolatingParam id="104" interp="linr"  time="-9999999/1" value="0" leadInLength="0/1"  />
           <InterpolatingParam id="105" interp="linr"  time="-9999999/1" value="0" leadInLength="0/1"  />
           <InterpolatingParam id="106" interp="linr"  time="-9999999/1" value="0" leadInLength="0/1"  />
          </VectorParam>
          <VectorParam id="107"  name="scale">
           <InterpolatingParam id="108" interp="linr"  time="-9999999/1" value="1" leadInLength="0/1"  />
           <InterpolatingParam id="109" interp="linr"  time="-9999999/1" value="1" leadInLength="0/1"  />
           <InterpolatingParam id="110" interp="linr"  time="-9999999/1" value="1" leadInLength="0/1"  />
          </VectorParam>
          <VectorParam id="111"  name="anchor">
           <InterpolatingParam id="112" interp="linr"  time="0/1" value="-12" leadInLength="0/1"  />
           <InterpolatingParam id="113" interp="linr"  time="0/1" value="-29.5" leadInLength="0/1"  />
           <InterpolatingParam id="114" interp="linr"  time="0/1" value="0" leadInLength="0/1"  />
          </VectorParam>
         </Transformer>
         <GenericMixer id="115"  >
          <MetaData>
          </MetaData>
          <Tracks>
           <GenericTrack id="116"  >
            <Attributes>
             <Attribute id="117" value="" name="ident"/>
            </Attributes>
            <MetaData>
             <entry key="IsLocked" val="False"/>
             <entry key="WinTrackHeight" val="0"/>
            </MetaData>
            <Medias>
             <Callout id="118" start="0" duration="210" scalar="1/1" mediaStart="0/1" mediaDuration="210/1" >
              <Transformer>
               <VectorParam id="119"  name="translation">
                <InterpolatingParam id="120" interp="linr"  time="-9999999/1" value="5.0000000002803962" leadInLength="0/1"  />
                <InterpolatingParam id="121" interp="linr"  time="-9999999/1" value="-173.33333333313254" leadInLength="0/1"  />
                <InterpolatingParam id="122" interp="linr"  time="-9999999/1" value="-3.4106051316488552e-010" leadInLength="0/1"  />
               </VectorParam>
               <VectorParam id="123"  name="rotation">
                <InterpolatingParam id="124" interp="linr"  time="-9999999/1" value="0" leadInLength="0/1"  />
                <InterpolatingParam id="125" interp="linr"  time="-9999999/1" value="0" leadInLength="0/1"  />
                <InterpolatingParam id="126" interp="linr"  time="-9999999/1" value="0" leadInLength="0/1"  />
               </VectorParam>
               <VectorParam id="127"  name="shear">
                <InterpolatingParam id="128" interp="linr"  time="-9999999/1" value="0" leadInLength="0/1"  />
                <InterpolatingParam id="129" interp="linr"  time="-9999999/1" value="0" leadInLength="0/1"  />
                <InterpolatingParam id="130" interp="linr"  time="-9999999/1" value="0" leadInLength="0/1"  />
               </VectorParam>
               <VectorParam id="131"  name="scale">
                <InterpolatingParam id="132" interp="linr"  time="-9999999/1" value="2.7916666666681289" leadInLength="0/1"  />
                <InterpolatingParam id="133" interp="linr"  time="-9999999/1" value="1" leadInLength="0/1"  />
                <InterpolatingParam id="134" interp="linr"  time="-9999999/1" value="1" leadInLength="0/1"  />
               </VectorParam>
               <VectorParam id="135"  name="anchor">
                <InterpolatingParam id="136" interp="linr"  time="0/1" value="0" leadInLength="0/1"  />
                <InterpolatingParam id="137" interp="linr"  time="0/1" value="0" leadInLength="0/1"  />
                <InterpolatingParam id="138" interp="linr"  time="0/1" value="0" leadInLength="0/1"  />
               </VectorParam>
              </Transformer>
              <Parameters>
               <VectorParam id="139"  name="sourceCrop">
                <InterpolatingParam id="140" interp="linr"  time="0/1" value="0" leadInLength="0/1"  />
                <InterpolatingParam id="141" interp="linr"  time="0/1" value="0" leadInLength="0/1"  />
                <InterpolatingParam id="142" interp="linr"  time="0/1" value="0" leadInLength="0/1"  />
                <InterpolatingParam id="143" interp="linr"  time="0/1" value="0" leadInLength="0/1"  />
               </VectorParam>
               <VectorParam id="144"  name="geometryCrop">
                <InterpolatingParam id="145" interp="linr"  time="-9999999/1" value="0" leadInLength="0/1"  />
                <InterpolatingParam id="146" interp="linr"  time="-9999999/1" value="0" leadInLength="0/1"  />
                <InterpolatingParam id="147" interp="linr"  time="-9999999/1" value="0" leadInLength="0/1"  />
                <InterpolatingParam id="148" interp="linr"  time="-9999999/1" value="0" leadInLength="0/1"  />
               </VectorParam>
               <InterpolatingParam id="149" interp="linr"  time="-9999999/1" value="1" leadInLength="0/1"  name="opacity"/>
              </Parameters>
              <Attributes>
               <Attribute id="150"  name="vectorNode">
                <VectorNode id="151" kind="TypeWinText"  >
                 <DoubleParameters>
                  <InterpolatingParam id="152" interp="linr"  time="0/1" value="5" leadInLength="0/1"  name="Style"/>
                  <InterpolatingParam id="153" interp="linr"  time="0/1" value="0" leadInLength="0/1"  name="dimensionTime"/>
                  <InterpolatingParam id="154" interp="linr"  time="0/1" value="180" leadInLength="0/1"  name="height"/>
                  <InterpolatingParam id="155" interp="linr"  time="0/1" value="0" leadInLength="0/1"  name="textDropShadow"/>
                  <InterpolatingParam id="156" interp="linr"  time="0/1" value="0" leadInLength="0/1"  name="textIgnoresOpacity"/>
                  <InterpolatingParam id="157" interp="linr"  time="0/1" value="1" leadInLength="0/1"  name="textRectHeight"/>
                  <InterpolatingParam id="158" interp="linr"  time="0/1" value="1" leadInLength="0/1"  name="textRectWidth"/>
                  <InterpolatingParam id="159" interp="linr"  time="0/1" value="0" leadInLength="0/1"  name="textRectX"/>
                  <InterpolatingParam id="160" interp="linr"  time="0/1" value="0" leadInLength="0/1"  name="textRectY"/>
                  <InterpolatingParam id="161" interp="linr"  time="0/1" value="0" leadInLength="0/1"  name="textVerticalAlign"/>
                  <InterpolatingParam id="162" interp="linr"  time="0/1" value="320" leadInLength="0/1"  name="width"/>
                 </DoubleParameters>
                 <StringParameters>
                  <Parameter id="163"  name="filename">
                   <Keyframes>
                   <Keyframe id="164"  time="0/1" value="C:\Program Files (x86)\TechSmith\Camtasia Studio 8\Media\Studio\Callouts\trans_100x100.xml" leadInLength="0/1"  />
                   </Keyframes>
                  </Parameter>
                  <Parameter id="165"  name="name">
                   <Keyframes>
                   <Keyframe id="166"  time="0/1" value="Text" leadInLength="0/1"  />
                   </Keyframes>
                  </Parameter>
                  <Parameter id="167"  name="text">
                   <Keyframes>
                   <Keyframe id="168"  time="0/1" value="{\rtf1\ansi\ansicpg1252\deff0\deflang1033{\fonttbl{\f0\fswiss\fprq2\fcharset0 Arial;}}&#xD;&#xa;{\colortbl ;\red0\green0\blue0;}&#xD;&#xa;\viewkind4\uc1\pard\qc\cf1\f0\fs44\par&#xD;&#xa;\par&#xD;&#xa;Department of Computer Science, University of Colorado at Boulder\fs96\par&#xD;&#xa;}&#xD;&#xa;" leadInLength="0/1"  />
                   </Keyframes>
                  </Parameter>
                  <Parameter id="169"  name="xmlContent">
                   <Keyframes>
                   <Keyframe id="170"  time="0/1" value="﻿&lt;?xml version=&quot;1.0&quot;?&gt;&#xa;&#xa;&lt;Overlay version=&quot;1.0.1&quot;&gt;&#xa;&#xa;&lt;Overlay_Filename&gt;trans_100x100.png&lt;/Overlay_Filename&gt;&#xa;&lt;Overlay_Name&gt;Text&lt;/Overlay_Name&gt;&#xa;&lt;Text_Top&gt;0&lt;/Text_Top&gt;&#xa;&lt;Text_Left&gt;0&lt;/Text_Left&gt;&#xa;&lt;Text_Bottom&gt;0&lt;/Text_Bottom&gt;&#xa;&lt;Text_Right&gt;0&lt;/Text_Right&gt;&#xa;&lt;Fill_Color&gt;0&lt;/Fill_Color&gt;&#xa;&lt;Border_Color&gt;0&lt;/Border_Color&gt;&#xa;&lt;Style&gt;5&lt;/Style&gt;&#xa;&lt;/Overlay&gt;" leadInLength="0/1"  />
                   </Keyframes>
                  </Parameter>
                 </StringParameters>
                </VectorNode>
               </Attribute>
              </Attributes>
              <MetaData>
               <entry key="WinSubProjectDisplayName" val=""/>
              </MetaData>
              <LeftEdgeMods length="30/1" groupName="OpacityFade">
               <EdgeMod parameter="149">
                <FadeInFunc id="171"  />
               </EdgeMod>
              </LeftEdgeMods>
              <RightEdgeMods length="30/1" groupName="OpacityFade">
               <EdgeMod parameter="149">
                <FadeOutFunc id="172"  />
               </EdgeMod>
              </RightEdgeMods>
              <ExtraData>
               <Entry key="ZoomPanBin">
                <ZoomPanBin id="173"  >
                 <ZoomPanKeyframes>
                  <ZoomPanKeyframe id="174" timeRangeEnd="-9999999/1" timeRangeDuration="0/1" interpolaterName="linr"  />
                 </ZoomPanKeyframes>
                </ZoomPanBin>
               </Entry>
              </ExtraData>
             </Callout>
            </Medias>
           </GenericTrack>
           <GenericTrack id="175"  >
            <Attributes>
             <Attribute id="176" value="" name="ident"/>
            </Attributes>
            <MetaData>
             <entry key="IsLocked" val="False"/>
             <entry key="WinTrackHeight" val="0"/>
            </MetaData>
            <Medias>
             <Callout id="177" start="0" duration="210" scalar="1/1" mediaStart="0/1" mediaDuration="210/1" >
              <Transformer>
               <VectorParam id="178"  name="translation">
                <InterpolatingParam id="179" interp="linr"  time="-9999999/1" value="-15.833333332810703" leadInLength="0/1"  />
                <InterpolatingParam id="180" interp="linr"  time="-9999999/1" value="60.000000000029956" leadInLength="0/1"  />
                <InterpolatingParam id="181" interp="linr"  time="-9999999/1" value="0" leadInLength="0/1"  />
               </VectorParam>
               <VectorParam id="182"  name="rotation">
                <InterpolatingParam id="183" interp="linr"  time="-9999999/1" value="0" leadInLength="0/1"  />
                <InterpolatingParam id="184" interp="linr"  time="-9999999/1" value="0" leadInLength="0/1"  />
                <InterpolatingParam id="185" interp="linr"  time="-9999999/1" value="0" leadInLength="0/1"  />
               </VectorParam>
               <VectorParam id="186"  name="shear">
                <InterpolatingParam id="187" interp="linr"  time="-9999999/1" value="0" leadInLength="0/1"  />
                <InterpolatingParam id="188" interp="linr"  time="-9999999/1" value="0" leadInLength="0/1"  />
                <InterpolatingParam id="189" interp="linr"  time="-9999999/1" value="0" leadInLength="0/1"  />
               </VectorParam>
               <VectorParam id="190"  name="scale">
                <InterpolatingParam id="191" interp="linr"  time="-9999999/1" value="3.536458333331892" leadInLength="0/1"  />
                <InterpolatingParam id="192" interp="linr"  time="-9999999/1" value="1.8888888888886173" leadInLength="0/1"  />
                <InterpolatingParam id="193" interp="linr"  time="-9999999/1" value="1" leadInLength="0/1"  />
               </VectorParam>
               <VectorParam id="194"  name="anchor">
                <InterpolatingParam id="195" interp="linr"  time="0/1" value="0" leadInLength="0/1"  />
                <InterpolatingParam id="196" interp="linr"  time="0/1" value="0" leadInLength="0/1"  />
                <InterpolatingParam id="197" interp="linr"  time="0/1" value="0" leadInLength="0/1"  />
               </VectorParam>
              </Transformer>
              <Parameters>
               <VectorParam id="198"  name="sourceCrop">
                <InterpolatingParam id="199" interp="linr"  time="0/1" value="0" leadInLength="0/1"  />
                <InterpolatingParam id="200" interp="linr"  time="0/1" value="0" leadInLength="0/1"  />
                <InterpolatingParam id="201" interp="linr"  time="0/1" value="0" leadInLength="0/1"  />
                <InterpolatingParam id="202" interp="linr"  time="0/1" value="0" leadInLength="0/1"  />
               </VectorParam>
               <VectorParam id="203"  name="geometryCrop">
                <InterpolatingParam id="204" interp="linr"  time="-9999999/1" value="0" leadInLength="0/1"  />
                <InterpolatingParam id="205" interp="linr"  time="-9999999/1" value="0" leadInLength="0/1"  />
                <InterpolatingParam id="206" interp="linr"  time="-9999999/1" value="0" leadInLength="0/1"  />
                <InterpolatingParam id="207" interp="linr"  time="-9999999/1" value="0" leadInLength="0/1"  />
               </VectorParam>
               <InterpolatingParam id="208" interp="linr"  time="-9999999/1" value="1" leadInLength="0/1"  name="opacity"/>
              </Parameters>
              <Attributes>
               <Attribute id="209"  name="vectorNode">
                <VectorNode id="210" kind="TypeWinText"  >
                 <DoubleParameters>
                  <InterpolatingParam id="211" interp="linr"  time="0/1" value="5" leadInLength="0/1"  name="Style"/>
                  <InterpolatingParam id="212" interp="linr"  time="0/1" value="0" leadInLength="0/1"  name="dimensionTime"/>
                  <InterpolatingParam id="213" interp="linr"  time="0/1" value="180" leadInLength="0/1"  name="height"/>
                  <InterpolatingParam id="214" interp="linr"  time="0/1" value="0" leadInLength="0/1"  name="textDropShadow"/>
                  <InterpolatingParam id="215" interp="linr"  time="0/1" value="0" leadInLength="0/1"  name="textIgnoresOpacity"/>
                  <InterpolatingParam id="216" interp="linr"  time="0/1" value="1" leadInLength="0/1"  name="textRectHeight"/>
                  <InterpolatingParam id="217" interp="linr"  time="0/1" value="1" leadInLength="0/1"  name="textRectWidth"/>
                  <InterpolatingParam id="218" interp="linr"  time="0/1" value="0" leadInLength="0/1"  name="textRectX"/>
                  <InterpolatingParam id="219" interp="linr"  time="0/1" value="0" leadInLength="0/1"  name="textRectY"/>
                  <InterpolatingParam id="220" interp="linr"  time="0/1" value="0" leadInLength="0/1"  name="textVerticalAlign"/>
                  <InterpolatingParam id="221" interp="linr"  time="0/1" value="320" leadInLength="0/1"  name="width"/>
                 </DoubleParameters>
                 <StringParameters>
                  <Parameter id="222"  name="filename">
                   <Keyframes>
                   <Keyframe id="223"  time="0/1" value="C:\Program Files (x86)\TechSmith\Camtasia Studio 8\Media\Studio\Callouts\trans_100x100.xml" leadInLength="0/1"  />
                   </Keyframes>
                  </Parameter>
                  <Parameter id="224"  name="name">
                   <Keyframes>
                   <Keyframe id="225"  time="0/1" value="Text" leadInLength="0/1"  />
                   </Keyframes>
                  </Parameter>
                  <Parameter id="226"  name="text">
                   <Keyframes>
                   <Keyframe id="227"  time="0/1" value="{\rtf1\ansi\ansicpg1252\deff0\deflang1033{\fonttbl{\f0\fswiss\fprq2\fcharset0 Arial;}}&#xD;&#xa;{\colortbl ;\red0\green0\blue0;}&#xD;&#xa;\viewkind4\uc1\pard\qc\cf1\f0\fs96  Optimal Parameter Identification for Discrete Mechanical Systems with Application to Flexible Object Manipulation\par&#xD;&#xa;}&#xD;&#xa;" leadInLength="0/1"  />
                   </Keyframes>
                  </Parameter>
                  <Parameter id="228"  name="xmlContent">
                   <Keyframes>
                   <Keyframe id="229"  time="0/1" value="﻿&lt;?xml version=&quot;1.0&quot;?&gt;&#xa;&#xa;&lt;Overlay version=&quot;1.0.1&quot;&gt;&#xa;&#xa;&lt;Overlay_Filename&gt;trans_100x100.png&lt;/Overlay_Filename&gt;&#xa;&lt;Overlay_Name&gt;Text&lt;/Overlay_Name&gt;&#xa;&lt;Text_Top&gt;0&lt;/Text_Top&gt;&#xa;&lt;Text_Left&gt;0&lt;/Text_Left&gt;&#xa;&lt;Text_Bottom&gt;0&lt;/Text_Bottom&gt;&#xa;&lt;Text_Right&gt;0&lt;/Text_Right&gt;&#xa;&lt;Fill_Color&gt;0&lt;/Fill_Color&gt;&#xa;&lt;Border_Color&gt;0&lt;/Border_Color&gt;&#xa;&lt;Style&gt;5&lt;/Style&gt;&#xa;&lt;/Overlay&gt;" leadInLength="0/1"  />
                   </Keyframes>
                  </Parameter>
                 </StringParameters>
                </VectorNode>
               </Attribute>
              </Attributes>
              <MetaData>
               <entry key="WinSubProjectDisplayName" val=""/>
              </MetaData>
              <LeftEdgeMods length="30/1" groupName="OpacityFade">
               <EdgeMod parameter="208">
                <FadeInFunc id="171"  />
               </EdgeMod>
              </LeftEdgeMods>
              <RightEdgeMods length="30/1" groupName="OpacityFade">
               <EdgeMod parameter="208">
                <FadeOutFunc id="230"  />
               </EdgeMod>
              </RightEdgeMods>
              <ExtraData>
               <Entry key="ZoomPanBin">
                <ZoomPanBin id="231"  >
                 <ZoomPanKeyframes>
                  <ZoomPanKeyframe id="232" timeRangeEnd="-9999999/1" timeRangeDuration="0/1" interpolaterName="linr"  />
                 </ZoomPanKeyframes>
                </ZoomPanBin>
               </Entry>
              </ExtraData>
             </Callout>
            </Medias>
           </GenericTrack>
           <GenericTrack id="233"  >
            <Attributes>
             <Attribute id="234" value="" name="ident"/>
            </Attributes>
            <MetaData>
             <entry key="IsLocked" val="False"/>
             <entry key="WinTrackHeight" val="0"/>
            </MetaData>
            <Medias>
             <Callout id="235" start="0" duration="210" scalar="1/1" mediaStart="0/1" mediaDuration="210/1" >
              <Transformer>
               <VectorParam id="236"  name="translation">
                <InterpolatingParam id="237" interp="linr"  time="-9999999/1" value="2.1258415340563905e-010" leadInLength="0/1"  />
                <InterpolatingParam id="238" interp="linr"  time="-9999999/1" value="-199.99999999983353" leadInLength="0/1"  />
                <InterpolatingParam id="239" interp="linr"  time="-9999999/1" value="0" leadInLength="0/1"  />
               </VectorParam>
               <VectorParam id="240"  name="rotation">
                <InterpolatingParam id="241" interp="linr"  time="-9999999/1" value="0" leadInLength="0/1"  />
                <InterpolatingParam id="242" interp="linr"  time="-9999999/1" value="0" leadInLength="0/1"  />
                <InterpolatingParam id="243" interp="linr"  time="-9999999/1" value="0" leadInLength="0/1"  />
               </VectorParam>
               <VectorParam id="244"  name="shear">
                <InterpolatingParam id="245" interp="linr"  time="-9999999/1" value="0" leadInLength="0/1"  />
                <InterpolatingParam id="246" interp="linr"  time="-9999999/1" value="0" leadInLength="0/1"  />
                <InterpolatingParam id="247" interp="linr"  time="-9999999/1" value="0" leadInLength="0/1"  />
               </VectorParam>
               <VectorParam id="248"  name="scale">
                <InterpolatingParam id="249" interp="linr"  time="-9999999/1" value="3.4843749999996647" leadInLength="0/1"  />
                <InterpolatingParam id="250" interp="linr"  time="-9999999/1" value="1" leadInLength="0/1"  />
                <InterpolatingParam id="251" interp="linr"  time="-9999999/1" value="1" leadInLength="0/1"  />
               </VectorParam>
               <VectorParam id="252"  name="anchor">
                <InterpolatingParam id="253" interp="linr"  time="0/1" value="0" leadInLength="0/1"  />
                <InterpolatingParam id="254" interp="linr"  time="0/1" value="0" leadInLength="0/1"  />
                <InterpolatingParam id="255" interp="linr"  time="0/1" value="0" leadInLength="0/1"  />
               </VectorParam>
              </Transformer>
              <Parameters>
               <VectorParam id="256"  name="sourceCrop">
                <InterpolatingParam id="257" interp="linr"  time="0/1" value="0" leadInLength="0/1"  />
                <InterpolatingParam id="258" interp="linr"  time="0/1" value="0" leadInLength="0/1"  />
                <InterpolatingParam id="259" interp="linr"  time="0/1" value="0" leadInLength="0/1"  />
                <InterpolatingParam id="260" interp="linr"  time="0/1" value="0" leadInLength="0/1"  />
               </VectorParam>
               <VectorParam id="261"  name="geometryCrop">
                <InterpolatingParam id="262" interp="linr"  time="-9999999/1" value="0" leadInLength="0/1"  />
                <InterpolatingParam id="263" interp="linr"  time="-9999999/1" value="0" leadInLength="0/1"  />
                <InterpolatingParam id="264" interp="linr"  time="-9999999/1" value="0" leadInLength="0/1"  />
                <InterpolatingParam id="265" interp="linr"  time="-9999999/1" value="0" leadInLength="0/1"  />
               </VectorParam>
               <InterpolatingParam id="266" interp="linr"  time="-9999999/1" value="1" leadInLength="0/1"  name="opacity"/>
              </Parameters>
              <Attributes>
               <Attribute id="267"  name="vectorNode">
                <VectorNode id="268" kind="TypeWinText"  >
                 <DoubleParameters>
                  <InterpolatingParam id="269" interp="linr"  time="0/1" value="5" leadInLength="0/1"  name="Style"/>
                  <InterpolatingParam id="270" interp="linr"  time="0/1" value="0" leadInLength="0/1"  name="dimensionTime"/>
                  <InterpolatingParam id="271" interp="linr"  time="0/1" value="180" leadInLength="0/1"  name="height"/>
                  <InterpolatingParam id="272" interp="linr"  time="0/1" value="0" leadInLength="0/1"  name="textDropShadow"/>
                  <InterpolatingParam id="273" interp="linr"  time="0/1" value="0" leadInLength="0/1"  name="textIgnoresOpacity"/>
                  <InterpolatingParam id="274" interp="linr"  time="0/1" value="1" leadInLength="0/1"  name="textRectHeight"/>
                  <InterpolatingParam id="275" interp="linr"  time="0/1" value="1" leadInLength="0/1"  name="textRectWidth"/>
                  <InterpolatingParam id="276" interp="linr"  time="0/1" value="0" leadInLength="0/1"  name="textRectX"/>
                  <InterpolatingParam id="277" interp="linr"  time="0/1" value="0" leadInLength="0/1"  name="textRectY"/>
                  <InterpolatingParam id="278" interp="linr"  time="0/1" value="0" leadInLength="0/1"  name="textVerticalAlign"/>
                  <InterpolatingParam id="279" interp="linr"  time="0/1" value="320" leadInLength="0/1"  name="width"/>
                 </DoubleParameters>
                 <StringParameters>
                  <Parameter id="280"  name="filename">
                   <Keyframes>
                   <Keyframe id="281"  time="0/1" value="C:\Program Files (x86)\TechSmith\Camtasia Studio 8\Media\Studio\Callouts\trans_100x100.xml" leadInLength="0/1"  />
                   </Keyframes>
                  </Parameter>
                  <Parameter id="282"  name="name">
                   <Keyframes>
                   <Keyframe id="283"  time="0/1" value="Text" leadInLength="0/1"  />
                   </Keyframes>
                  </Parameter>
                  <Parameter id="284"  name="text">
                   <Keyframes>
                   <Keyframe id="285"  time="0/1" value="{\rtf1\ansi\ansicpg1252\deff0\deflang1033{\fonttbl{\f0\fswiss\fprq2\fcharset0 Arial;}}&#xD;&#xa;{\colortbl ;\red0\green0\blue0;}&#xD;&#xa;\viewkind4\uc1\pard\qc\cf1\f0\fs44 Timothy M. Caldwell, David T. Coleman and Nikolaus Correll\line\fs96\par&#xD;&#xa;}&#xD;&#xa;" leadInLength="0/1"  />
                   </Keyframes>
                  </Parameter>
                  <Parameter id="286"  name="xmlContent">
                   <Keyframes>
                   <Keyframe id="287"  time="0/1" value="﻿&lt;?xml version=&quot;1.0&quot;?&gt;&#xa;&#xa;&lt;Overlay version=&quot;1.0.1&quot;&gt;&#xa;&#xa;&lt;Overlay_Filename&gt;trans_100x100.png&lt;/Overlay_Filename&gt;&#xa;&lt;Overlay_Name&gt;Text&lt;/Overlay_Name&gt;&#xa;&lt;Text_Top&gt;0&lt;/Text_Top&gt;&#xa;&lt;Text_Left&gt;0&lt;/Text_Left&gt;&#xa;&lt;Text_Bottom&gt;0&lt;/Text_Bottom&gt;&#xa;&lt;Text_Right&gt;0&lt;/Text_Right&gt;&#xa;&lt;Fill_Color&gt;0&lt;/Fill_Color&gt;&#xa;&lt;Border_Color&gt;0&lt;/Border_Color&gt;&#xa;&lt;Style&gt;5&lt;/Style&gt;&#xa;&lt;/Overlay&gt;" leadInLength="0/1"  />
                   </Keyframes>
                  </Parameter>
                 </StringParameters>
                </VectorNode>
               </Attribute>
              </Attributes>
              <MetaData>
               <entry key="WinSubProjectDisplayName" val=""/>
              </MetaData>
              <LeftEdgeMods length="30/1" groupName="OpacityFade">
               <EdgeMod parameter="266">
                <FadeInFunc id="171"  />
               </EdgeMod>
              </LeftEdgeMods>
              <RightEdgeMods length="30/1" groupName="OpacityFade">
               <EdgeMod parameter="266">
                <FadeOutFunc id="288"  />
               </EdgeMod>
              </RightEdgeMods>
              <ExtraData>
               <Entry key="ZoomPanBin">
                <ZoomPanBin id="289"  >
                 <ZoomPanKeyframes>
                  <ZoomPanKeyframe id="290" timeRangeEnd="-9999999/1" timeRangeDuration="0/1" interpolaterName="linr"  />
                 </ZoomPanKeyframes>
                </ZoomPanBin>
               </Entry>
              </ExtraData>
             </Callout>
            </Medias>
           </GenericTrack>
          </Tracks>
         </GenericMixer>
         <MetaData>
          <entry key="IsGroupExpanded" val="False"/>
          <entry key="WinSubProjectDisplayName" val="title"/>
         </MetaData>
         <ExtraData>
          <Entry key="ZoomPanBin">
           <ZoomPanBin id="291"  >
            <ZoomPanKeyframes>
             <ZoomPanKeyframe id="292" timeRangeEnd="-9999999/1" timeRangeDuration="0/1" interpolaterName="linr"  />
            </ZoomPanKeyframes>
           </ZoomPanBin>
          </Entry>
         </ExtraData>
        </Group>
        <UnifiedMedia id="293"  >
         <AudioTransition id="294" start="195" duration="15" >
          <Parameters>
           <InterpolatingParam id="295" interp="linr"  time="0/1" value="1" leadInLength="0/1"  name="volume"/>
           <Parameter id="296"  name="captions"/>
          </Parameters>
          <Effects>
           <GenericEffect id="297" name = "AudioTransition" >
            <Parameters>
            <Parameter id="298"   name="audioEdgeModType">
             <Keyframes>
             <Keyframe id="299"  time="0/1" value="0" leadInLength="0/1"  />
             </Keyframes>
            </Parameter>
            <Parameter id="300"   name="audioTransitionType">
             <Keyframes>
             <Keyframe id="301"  time="0/1" value="" leadInLength="0/1"  />
             </Keyframes>
            </Parameter>
            </Parameters>
            <MetaData>
            </MetaData>
           </GenericEffect>
          </Effects>
          <Attributes>
           <Attribute id="302" value="" name="ident"/>
           <Attribute id="303" value="0" name="sampleRate"/>
           <Attribute id="304" value="0" name="bitDepth"/>
           <Attribute id="305" value="1" name="gain"/>
          </Attributes>
         </AudioTransition>
         <ImageTransition id="306" start="195" duration="15" >
          <Transformer>
           <VectorParam id="307"  name="translation">
            <InterpolatingParam id="308" interp="linr"  time="0/1" value="0" leadInLength="0/1"  />
            <InterpolatingParam id="309" interp="linr"  time="0/1" value="0" leadInLength="0/1"  />
            <InterpolatingParam id="310" interp="linr"  time="0/1" value="0" leadInLength="0/1"  />
           </VectorParam>
           <VectorParam id="311"  name="rotation">
            <InterpolatingParam id="312" interp="linr"  time="0/1" value="0" leadInLength="0/1"  />
            <InterpolatingParam id="313" interp="linr"  time="0/1" value="0" leadInLength="0/1"  />
            <InterpolatingParam id="314" interp="linr"  time="0/1" value="0" leadInLength="0/1"  />
           </VectorParam>
           <VectorParam id="315"  name="shear">
            <InterpolatingParam id="316" interp="linr"  time="0/1" value="0" leadInLength="0/1"  />
            <InterpolatingParam id="317" interp="linr"  time="0/1" value="0" leadInLength="0/1"  />
            <InterpolatingParam id="318" interp="linr"  time="0/1" value="0" leadInLength="0/1"  />
           </VectorParam>
           <VectorParam id="319"  name="scale">
            <InterpolatingParam id="320" interp="linr"  time="0/1" value="1" leadInLength="0/1"  />
            <InterpolatingParam id="321" interp="linr"  time="0/1" value="1" leadInLength="0/1"  />
            <InterpolatingParam id="322" interp="linr"  time="0/1" value="1" leadInLength="0/1"  />
           </VectorParam>
           <VectorParam id="323"  name="anchor">
            <InterpolatingParam id="324" interp="linr"  time="0/1" value="0" leadInLength="0/1"  />
            <InterpolatingParam id="325" interp="linr"  time="0/1" value="0" leadInLength="0/1"  />
            <InterpolatingParam id="326" interp="linr"  time="0/1" value="0" leadInLength="0/1"  />
           </VectorParam>
          </Transformer>
          <Parameters>
           <VectorParam id="327"  name="sourceCrop">
            <InterpolatingParam id="328" interp="linr"  time="0/1" value="0" leadInLength="0/1"  />
            <InterpolatingParam id="329" interp="linr"  time="0/1" value="0" leadInLength="0/1"  />
            <InterpolatingParam id="330" interp="linr"  time="0/1" value="0" leadInLength="0/1"  />
            <InterpolatingParam id="331" interp="linr"  time="0/1" value="0" leadInLength="0/1"  />
           </VectorParam>
           <VectorParam id="332"  name="geometryCrop">
            <InterpolatingParam id="333" interp="linr"  time="0/1" value="0" leadInLength="0/1"  />
            <InterpolatingParam id="334" interp="linr"  time="0/1" value="0" leadInLength="0/1"  />
            <InterpolatingParam id="335" interp="linr"  time="0/1" value="0" leadInLength="0/1"  />
            <InterpolatingParam id="336" interp="linr"  time="0/1" value="0" leadInLength="0/1"  />
           </VectorParam>
           <InterpolatingParam id="337" interp="linr"  time="0/1" value="1" leadInLength="0/1"  name="opacity"/>
          </Parameters>
          <Effects>
           <GenericEffect id="338" name = "VisualTransition" >
            <Parameters>
            <InterpolatingParam id="339" interp="linr"  time="0/1" value="0.5" leadInLength="0/1"   name="leftFramePercentage"/>
            <InterpolatingParam id="340" interp="linr"  time="0/1" value="0.5" leadInLength="0/1"   name="rightFramePercentage"/>
            <Parameter id="341"   name="visualEdgeModType">
             <Keyframes>
             <Keyframe id="342"  time="0/1" value="2" leadInLength="0/1"  />
             </Keyframes>
            </Parameter>
            <Parameter id="343"   name="visualTransitionType">
             <Keyframes>
             <Keyframe id="344"  time="0/1" value="Fade" leadInLength="0/1"  />
             </Keyframes>
            </Parameter>
            </Parameters>
            <MetaData>
            </MetaData>
           </GenericEffect>
          </Effects>
          <Attributes>
           <Attribute id="345" value="" name="ident"/>
          </Attributes>
          <ExtraData>
           <Entry key="ZoomPanBin">
            <ZoomPanBin id="346"  >
             <ZoomPanKeyframes>
             </ZoomPanKeyframes>
            </ZoomPanBin>
           </Entry>
          </ExtraData>
         </ImageTransition>
         <MetaData>
          <entry key="WinSubProjectDisplayName" val=""/>
         </MetaData>
        </UnifiedMedia>
        <VMFile id="347" start="210" duration="550" scalar="1/1" mediaStart="181/1" mediaDuration="550/1" trackNumber="0" src="4" >
         <Transformer>
          <VectorParam id="348"  name="translation">
           <InterpolatingParam id="349" interp="linr"  time="-9999999/1" value="-316.19541460803725" leadInLength="0/1"  />
           <InterpolatingParam id="350" interp="linr"  time="-9999999/1" value="-215.65259625214154" leadInLength="0/1"  />
           <InterpolatingParam id="351" interp="linr"  time="-9999999/1" value="-3.4106051316494259e-010" leadInLength="0/1"  />
          </VectorParam>
          <VectorParam id="352"  name="rotation">
           <InterpolatingParam id="353" interp="linr"  time="-9999999/1" value="0" leadInLength="0/1"  />
           <InterpolatingParam id="354" interp="linr"  time="-9999999/1" value="0" leadInLength="0/1"  />
           <InterpolatingParam id="355" interp="linr"  time="-9999999/1" value="-1.5707963267948966" leadInLength="0/1"  />
          </VectorParam>
          <VectorParam id="356"  name="shear">
           <InterpolatingParam id="357" interp="linr"  time="-9999999/1" value="8.5700232262643482e-033" leadInLength="0/1"  />
           <InterpolatingParam id="358" interp="linr"  time="-9999999/1" value="0" leadInLength="0/1"  />
           <InterpolatingParam id="359" interp="linr"  time="-9999999/1" value="0" leadInLength="0/1"  />
          </VectorParam>
          <VectorParam id="360"  name="scale">
           <InterpolatingParam id="361" interp="linr"  time="-9999999/1" value="0.59963812109603665" leadInLength="0/1"  />
           <InterpolatingParam id="362" interp="linr"  time="-9999999/1" value="0.59963812109603676" leadInLength="0/1"  />
           <InterpolatingParam id="363" interp="linr"  time="-9999999/1" value="1" leadInLength="0/1"  />
          </VectorParam>
          <VectorParam id="364"  name="anchor">
           <InterpolatingParam id="365" interp="linr"  time="0/1" value="0" leadInLength="0/1"  />
           <InterpolatingParam id="366" interp="linr"  time="0/1" value="0" leadInLength="0/1"  />
           <InterpolatingParam id="367" interp="linr"  time="0/1" value="0" leadInLength="0/1"  />
          </VectorParam>
         </Transformer>
         <Parameters>
          <VectorParam id="368"  name="sourceCrop">
           <InterpolatingParam id="369" interp="linr"  time="0/1" value="0" leadInLength="0/1"  />
           <InterpolatingParam id="370" interp="linr"  time="0/1" value="0" leadInLength="0/1"  />
           <InterpolatingParam id="371" interp="linr"  time="0/1" value="0" leadInLength="0/1"  />
           <InterpolatingParam id="372" interp="linr"  time="0/1" value="0" leadInLength="0/1"  />
          </VectorParam>
          <VectorParam id="373"  name="geometryCrop">
           <InterpolatingParam id="374" interp="linr"  time="-9999999/1" value="0" leadInLength="0/1"  />
           <InterpolatingParam id="375" interp="linr"  time="-9999999/1" value="0" leadInLength="0/1"  />
           <InterpolatingParam id="376" interp="linr"  time="-9999999/1" value="719.27580540698352" leadInLength="0/1"  />
           <InterpolatingParam id="377" interp="linr"  time="-9999999/1" value="0" leadInLength="0/1"  />
          </VectorParam>
          <InterpolatingParam id="378" interp="linr"  time="-9999999/1" value="1" leadInLength="0/1"  name="opacity"/>
         </Parameters>
         <Attributes>
          <Attribute id="379" value="" name="ident"/>
         </Attributes>
         <MetaData>
          <entry key="WinSubProjectDisplayName" val=""/>
         </MetaData>
         <ExtraData>
          <Entry key="ZoomPanBin">
           <ZoomPanBin id="380"  >
            <ZoomPanKeyframes>
             <ZoomPanKeyframe id="381" timeRangeEnd="-9999999/1" timeRangeDuration="0/1" interpolaterName="linr"  />
            </ZoomPanKeyframes>
           </ZoomPanBin>
          </Entry>
         </ExtraData>
        </VMFile>
        <UnifiedMedia id="382"  >
         <AMFile id="383" start="760" duration="546" scalar="1/1" mediaStart="98/1" mediaDuration="546/1" trackNumber="1" src="4" channelNumber="0,1" >
          <Parameters>
           <InterpolatingParam id="384" interp="linr"  time="0/1" value="1" leadInLength="0/1"  name="volume"/>
           <Parameter id="385"  name="captions"/>
          </Parameters>
          <Attributes>
           <Attribute id="386" value="" name="ident"/>
           <Attribute id="387" value="48000" name="sampleRate"/>
           <Attribute id="388" value="16" name="bitDepth"/>
           <Attribute id="389" value="1" name="gain"/>
          </Attributes>
         </AMFile>
         <VMFile id="390" start="760" duration="546" scalar="1/1" mediaStart="98/1" mediaDuration="546/1" trackNumber="0" src="4" >
          <Transformer>
           <VectorParam id="391"  name="translation">
            <InterpolatingParam id="392" interp="linr"  time="-9999999/1" value="-258.15360720102973" leadInLength="0/1"  />
            <InterpolatingParam id="393" interp="linr"  time="-9999999/1" value="-278.88769974515202" leadInLength="0/1"  />
            <InterpolatingParam id="394" interp="linr"  time="-9999999/1" value="0" leadInLength="0/1"  />
           </VectorParam>
           <VectorParam id="395"  name="rotation">
            <InterpolatingParam id="396" interp="linr"  time="-9999999/1" value="0" leadInLength="0/1"  />
            <InterpolatingParam id="397" interp="linr"  time="-9999999/1" value="0" leadInLength="0/1"  />
            <InterpolatingParam id="398" interp="linr"  time="-9999999/1" value="-1.5707963267948966" leadInLength="0/1"  />
           </VectorParam>
           <VectorParam id="399"  name="shear">
            <InterpolatingParam id="400" interp="linr"  time="-9999999/1" value="-4.9301551928630022e-032" leadInLength="0/1"  />
            <InterpolatingParam id="401" interp="linr"  time="-9999999/1" value="0" leadInLength="0/1"  />
            <InterpolatingParam id="402" interp="linr"  time="-9999999/1" value="0" leadInLength="0/1"  />
           </VectorParam>
           <VectorParam id="403"  name="scale">
            <InterpolatingParam id="404" interp="linr"  time="-9999999/1" value="0.70712294962726352" leadInLength="0/1"  />
            <InterpolatingParam id="405" interp="linr"  time="-9999999/1" value="0.70712294962726374" leadInLength="0/1"  />
            <InterpolatingParam id="406" interp="linr"  time="-9999999/1" value="1" leadInLength="0/1"  />
           </VectorParam>
           <VectorParam id="407"  name="anchor">
            <InterpolatingParam id="408" interp="linr"  time="0/1" value="0" leadInLength="0/1"  />
            <InterpolatingParam id="409" interp="linr"  time="0/1" value="0" leadInLength="0/1"  />
            <InterpolatingParam id="410" interp="linr"  time="0/1" value="0" leadInLength="0/1"  />
           </VectorParam>
          </Transformer>
          <Parameters>
           <VectorParam id="411"  name="sourceCrop">
            <InterpolatingParam id="412" interp="linr"  time="0/1" value="0" leadInLength="0/1"  />
            <InterpolatingParam id="413" interp="linr"  time="0/1" value="0" leadInLength="0/1"  />
            <InterpolatingParam id="414" interp="linr"  time="0/1" value="0" leadInLength="0/1"  />
            <InterpolatingParam id="415" interp="linr"  time="0/1" value="0" leadInLength="0/1"  />
           </VectorParam>
           <VectorParam id="416"  name="geometryCrop">
            <InterpolatingParam id="417" interp="linr"  time="-9999999/1" value="56.497009350660846" leadInLength="0/1"  />
            <InterpolatingParam id="418" interp="linr"  time="-9999999/1" value="0" leadInLength="0/1"  />
            <InterpolatingParam id="419" interp="linr"  time="-9999999/1" value="845.29250776309755" leadInLength="0/1"  />
            <InterpolatingParam id="420" interp="linr"  time="-9999999/1" value="0" leadInLength="0/1"  />
           </VectorParam>
           <InterpolatingParam id="421" interp="linr"  time="-9999999/1" value="1" leadInLength="0/1"  name="opacity"/>
          </Parameters>
          <Attributes>
           <Attribute id="422" value="" name="ident"/>
          </Attributes>
          <ExtraData>
           <Entry key="ZoomPanBin">
            <ZoomPanBin id="423"  >
             <ZoomPanKeyframes>
              <ZoomPanKeyframe id="424" timeRangeEnd="-9999999/1" timeRangeDuration="0/1" interpolaterName="linr"  />
             </ZoomPanKeyframes>
            </ZoomPanBin>
           </Entry>
          </ExtraData>
         </VMFile>
         <MetaData>
          <entry key="WinSubProjectDisplayName" val=""/>
         </MetaData>
        </UnifiedMedia>
        <Group id="425" start="1306" duration="363" scalar="1" mediaStart="0" mediaDuration="363" baseWidthAttr="0" baseHeightAttr="0"  >
         <Parameters>
          <VectorParam id="426"  name="sourceCrop">
           <InterpolatingParam id="427" interp="linr"  time="0/1" value="0" leadInLength="0/1"  />
           <InterpolatingParam id="428" interp="linr"  time="0/1" value="0" leadInLength="0/1"  />
           <InterpolatingParam id="429" interp="linr"  time="0/1" value="0" leadInLength="0/1"  />
           <InterpolatingParam id="430" interp="linr"  time="0/1" value="0" leadInLength="0/1"  />
          </VectorParam>
          <VectorParam id="431"  name="geometryCrop">
           <InterpolatingParam id="432" interp="linr"  time="0/1" value="0" leadInLength="0/1"  />
           <InterpolatingParam id="433" interp="linr"  time="0/1" value="0" leadInLength="0/1"  />
           <InterpolatingParam id="434" interp="linr"  time="0/1" value="0" leadInLength="0/1"  />
           <InterpolatingParam id="435" interp="linr"  time="0/1" value="0" leadInLength="0/1"  />
          </VectorParam>
          <InterpolatingParam id="436" interp="linr"  time="0/1" value="1" leadInLength="0/1"  name="opacity"/>
          <Parameter id="437"  name="captions"/>
          <InterpolatingParam id="438" interp="linr"  time="0/1" value="1" leadInLength="0/1"  name="volume"/>
         </Parameters>
         <Transformer>
          <VectorParam id="439"  name="translation">
           <InterpolatingParam id="440" interp="linr"  time="0/1" value="-12" leadInLength="0/1"  />
           <InterpolatingParam id="441" interp="linr"  time="0/1" value="-10" leadInLength="0/1"  />
           <InterpolatingParam id="442" interp="linr"  time="0/1" value="0" leadInLength="0/1"  />
          </VectorParam>
          <VectorParam id="443"  name="rotation">
           <InterpolatingParam id="444" interp="linr"  time="0/1" value="0" leadInLength="0/1"  />
           <InterpolatingParam id="445" interp="linr"  time="0/1" value="0" leadInLength="0/1"  />
           <InterpolatingParam id="446" interp="linr"  time="0/1" value="0" leadInLength="0/1"  />
          </VectorParam>
          <VectorParam id="447"  name="shear">
           <InterpolatingParam id="448" interp="linr"  time="0/1" value="0" leadInLength="0/1"  />
           <InterpolatingParam id="449" interp="linr"  time="0/1" value="0" leadInLength="0/1"  />
           <InterpolatingParam id="450" interp="linr"  time="0/1" value="0" leadInLength="0/1"  />
          </VectorParam>
          <VectorParam id="451"  name="scale">
           <InterpolatingParam id="452" interp="linr"  time="0/1" value="1" leadInLength="0/1"  />
           <InterpolatingParam id="453" interp="linr"  time="0/1" value="1" leadInLength="0/1"  />
           <InterpolatingParam id="454" interp="linr"  time="0/1" value="1" leadInLength="0/1"  />
          </VectorParam>
          <VectorParam id="455"  name="anchor">
           <InterpolatingParam id="456" interp="linr"  time="0/1" value="-12" leadInLength="0/1"  />
           <InterpolatingParam id="457" interp="linr"  time="0/1" value="-10" leadInLength="0/1"  />
           <InterpolatingParam id="458" interp="linr"  time="0/1" value="0" leadInLength="0/1"  />
          </VectorParam>
         </Transformer>
         <GenericMixer id="459"  >
          <MetaData>
          </MetaData>
          <Tracks>
           <GenericTrack id="460"  >
            <Attributes>
             <Attribute id="461" value="" name="ident"/>
            </Attributes>
            <MetaData>
             <entry key="IsLocked" val="False"/>
             <entry key="WinTrackHeight" val="0"/>
            </MetaData>
            <Medias>
             <IMFile id="462" start="0" duration="363" scalar="1/1" mediaStart="0/1" mediaDuration="1/1" trackNumber="0" src="7" trimStartSum="0/1" >
              <Transformer>
               <VectorParam id="463"  name="translation">
                <InterpolatingParam id="464" interp="linr"  time="-9999999/1" value="282.78438030519442" leadInLength="0/1"  />
                <InterpolatingParam id="465" interp="linr"  time="-9999999/1" value="-14.463157894516007" leadInLength="0/1"  />
                <InterpolatingParam id="466" interp="linr"  time="-9999999/1" value="3.4106051316477183e-010" leadInLength="0/1"  />
               </VectorParam>
               <VectorParam id="467"  name="rotation">
                <InterpolatingParam id="468" interp="linr"  time="-9999999/1" value="0" leadInLength="0/1"  />
                <InterpolatingParam id="469" interp="linr"  time="-9999999/1" value="0" leadInLength="0/1"  />
                <InterpolatingParam id="470" interp="linr"  time="-9999999/1" value="0" leadInLength="0/1"  />
               </VectorParam>
               <VectorParam id="471"  name="shear">
                <InterpolatingParam id="472" interp="linr"  time="-9999999/1" value="0" leadInLength="0/1"  />
                <InterpolatingParam id="473" interp="linr"  time="-9999999/1" value="0" leadInLength="0/1"  />
                <InterpolatingParam id="474" interp="linr"  time="-9999999/1" value="0" leadInLength="0/1"  />
               </VectorParam>
               <VectorParam id="475"  name="scale">
                <InterpolatingParam id="476" interp="linr"  time="-9999999/1" value="0.58577928692633341" leadInLength="0/1"  />
                <InterpolatingParam id="477" interp="linr"  time="-9999999/1" value="0.58577928692633308" leadInLength="0/1"  />
                <InterpolatingParam id="478" interp="linr"  time="-9999999/1" value="0.99999999999999956" leadInLength="0/1"  />
               </VectorParam>
               <VectorParam id="479"  name="anchor">
                <InterpolatingParam id="480" interp="linr"  time="0/1" value="0" leadInLength="0/1"  />
                <InterpolatingParam id="481" interp="linr"  time="0/1" value="0" leadInLength="0/1"  />
                <InterpolatingParam id="482" interp="linr"  time="0/1" value="0" leadInLength="0/1"  />
               </VectorParam>
              </Transformer>
              <Parameters>
               <VectorParam id="483"  name="sourceCrop">
                <InterpolatingParam id="484" interp="linr"  time="0/1" value="0" leadInLength="0/1"  />
                <InterpolatingParam id="485" interp="linr"  time="0/1" value="0" leadInLength="0/1"  />
                <InterpolatingParam id="486" interp="linr"  time="0/1" value="0" leadInLength="0/1"  />
                <InterpolatingParam id="487" interp="linr"  time="0/1" value="0" leadInLength="0/1"  />
               </VectorParam>
               <VectorParam id="488"  name="geometryCrop">
                <InterpolatingParam id="489" interp="linr"  time="-9999999/1" value="0" leadInLength="0/1"  />
                <InterpolatingParam id="490" interp="linr"  time="-9999999/1" value="0" leadInLength="0/1"  />
                <InterpolatingParam id="491" interp="linr"  time="-9999999/1" value="0" leadInLength="0/1"  />
                <InterpolatingParam id="492" interp="linr"  time="-9999999/1" value="0" leadInLength="0/1"  />
               </VectorParam>
               <InterpolatingParam id="493" interp="linr"  time="-9999999/1" value="1" leadInLength="0/1"  name="opacity"/>
              </Parameters>
              <Attributes>
               <Attribute id="494" value="" name="ident"/>
              </Attributes>
              <MetaData>
               <entry key="WinSubProjectDisplayName" val=""/>
              </MetaData>
              <ExtraData>
               <Entry key="ZoomPanBin">
                <ZoomPanBin id="495"  >
                 <ZoomPanKeyframes>
                  <ZoomPanKeyframe id="496" timeRangeEnd="-9999999/1" timeRangeDuration="0/1" interpolaterName="linr"  />
                 </ZoomPanKeyframes>
                </ZoomPanBin>
               </Entry>
              </ExtraData>
             </IMFile>
            </Medias>
           </GenericTrack>
           <GenericTrack id="497"  >
            <Attributes>
             <Attribute id="498" value="" name="ident"/>
            </Attributes>
            <MetaData>
             <entry key="IsLocked" val="False"/>
             <entry key="WinTrackHeight" val="0"/>
            </MetaData>
            <Medias>
             <IMFile id="499" start="0" duration="363" scalar="1/1" mediaStart="0/1" mediaDuration="1/1" trackNumber="0" src="6" trimStartSum="0/1" >
              <Transformer>
               <VectorParam id="500"  name="translation">
                <InterpolatingParam id="501" interp="linr"  time="-9999999/1" value="-304.84210526302604" leadInLength="0/1"  />
                <InterpolatingParam id="502" interp="linr"  time="-9999999/1" value="-5.0249582272954285e-011" leadInLength="0/1"  />
                <InterpolatingParam id="503" interp="linr"  time="-9999999/1" value="0" leadInLength="0/1"  />
               </VectorParam>
               <VectorParam id="504"  name="rotation">
                <InterpolatingParam id="505" interp="linr"  time="-9999999/1" value="0" leadInLength="0/1"  />
                <InterpolatingParam id="506" interp="linr"  time="-9999999/1" value="0" leadInLength="0/1"  />
                <InterpolatingParam id="507" interp="linr"  time="-9999999/1" value="0" leadInLength="0/1"  />
               </VectorParam>
               <VectorParam id="508"  name="shear">
                <InterpolatingParam id="509" interp="linr"  time="-9999999/1" value="0" leadInLength="0/1"  />
                <InterpolatingParam id="510" interp="linr"  time="-9999999/1" value="0" leadInLength="0/1"  />
                <InterpolatingParam id="511" interp="linr"  time="-9999999/1" value="0" leadInLength="0/1"  />
               </VectorParam>
               <VectorParam id="512"  name="scale">
                <InterpolatingParam id="513" interp="linr"  time="-9999999/1" value="0.36842105263134384" leadInLength="0/1"  />
                <InterpolatingParam id="514" interp="linr"  time="-9999999/1" value="0.36842105263134395" leadInLength="0/1"  />
                <InterpolatingParam id="515" interp="linr"  time="-9999999/1" value="1" leadInLength="0/1"  />
               </VectorParam>
               <VectorParam id="516"  name="anchor">
                <InterpolatingParam id="517" interp="linr"  time="0/1" value="0" leadInLength="0/1"  />
                <InterpolatingParam id="518" interp="linr"  time="0/1" value="0" leadInLength="0/1"  />
                <InterpolatingParam id="519" interp="linr"  time="0/1" value="0" leadInLength="0/1"  />
               </VectorParam>
              </Transformer>
              <Parameters>
               <VectorParam id="520"  name="sourceCrop">
                <InterpolatingParam id="521" interp="linr"  time="0/1" value="0" leadInLength="0/1"  />
                <InterpolatingParam id="522" interp="linr"  time="0/1" value="0" leadInLength="0/1"  />
                <InterpolatingParam id="523" interp="linr"  time="0/1" value="0" leadInLength="0/1"  />
                <InterpolatingParam id="524" interp="linr"  time="0/1" value="0" leadInLength="0/1"  />
               </VectorParam>
               <VectorParam id="525"  name="geometryCrop">
                <InterpolatingParam id="526" interp="linr"  time="-9999999/1" value="0" leadInLength="0/1"  />
                <InterpolatingParam id="527" interp="linr"  time="-9999999/1" value="0" leadInLength="0/1"  />
                <InterpolatingParam id="528" interp="linr"  time="-9999999/1" value="0" leadInLength="0/1"  />
                <InterpolatingParam id="529" interp="linr"  time="-9999999/1" value="0" leadInLength="0/1"  />
               </VectorParam>
               <InterpolatingParam id="530" interp="linr"  time="-9999999/1" value="1" leadInLength="0/1"  name="opacity"/>
              </Parameters>
              <Attributes>
               <Attribute id="531" value="" name="ident"/>
              </Attributes>
              <MetaData>
               <entry key="WinSubProjectDisplayName" val=""/>
              </MetaData>
              <ExtraData>
               <Entry key="ZoomPanBin">
                <ZoomPanBin id="532"  >
                 <ZoomPanKeyframes>
                  <ZoomPanKeyframe id="533" timeRangeEnd="-9999999/1" timeRangeDuration="0/1" interpolaterName="linr"  />
                 </ZoomPanKeyframes>
                </ZoomPanBin>
               </Entry>
              </ExtraData>
             </IMFile>
            </Medias>
           </GenericTrack>
          </Tracks>
         </GenericMixer>
         <MetaData>
          <entry key="IsGroupExpanded" val="False"/>
          <entry key="WinSubProjectDisplayName" val="results"/>
         </MetaData>
         <ExtraData>
          <Entry key="ZoomPanBin">
           <ZoomPanBin id="534"  >
            <ZoomPanKeyframes>
            </ZoomPanKeyframes>
           </ZoomPanBin>
          </Entry>
         </ExtraData>
        </Group>
        <Group id="535" start="1669" duration="134" scalar="1" mediaStart="0" mediaDuration="134" baseWidthAttr="0" baseHeightAttr="0"  >
         <Parameters>
          <VectorParam id="536"  name="sourceCrop">
           <InterpolatingParam id="537" interp="linr"  time="0/1" value="0" leadInLength="0/1"  />
           <InterpolatingParam id="538" interp="linr"  time="0/1" value="0" leadInLength="0/1"  />
           <InterpolatingParam id="539" interp="linr"  time="0/1" value="0" leadInLength="0/1"  />
           <InterpolatingParam id="540" interp="linr"  time="0/1" value="0" leadInLength="0/1"  />
          </VectorParam>
          <VectorParam id="541"  name="geometryCrop">
           <InterpolatingParam id="542" interp="linr"  time="0/1" value="0" leadInLength="0/1"  />
           <InterpolatingParam id="543" interp="linr"  time="0/1" value="0" leadInLength="0/1"  />
           <InterpolatingParam id="544" interp="linr"  time="0/1" value="0" leadInLength="0/1"  />
           <InterpolatingParam id="545" interp="linr"  time="0/1" value="0" leadInLength="0/1"  />
          </VectorParam>
          <InterpolatingParam id="546" interp="linr"  time="0/1" value="1" leadInLength="0/1"  name="opacity"/>
          <Parameter id="547"  name="captions"/>
          <InterpolatingParam id="548" interp="linr"  time="0/1" value="1" leadInLength="0/1"  name="volume"/>
         </Parameters>
         <Transformer>
          <VectorParam id="549"  name="translation">
           <InterpolatingParam id="550" interp="linr"  time="0/1" value="4.5" leadInLength="0/1"  />
           <InterpolatingParam id="551" interp="linr"  time="0/1" value="-66.5" leadInLength="0/1"  />
           <InterpolatingParam id="552" interp="linr"  time="0/1" value="0" leadInLength="0/1"  />
          </VectorParam>
          <VectorParam id="553"  name="rotation">
           <InterpolatingParam id="554" interp="linr"  time="0/1" value="0" leadInLength="0/1"  />
           <InterpolatingParam id="555" interp="linr"  time="0/1" value="0" leadInLength="0/1"  />
           <InterpolatingParam id="556" interp="linr"  time="0/1" value="0" leadInLength="0/1"  />
          </VectorParam>
          <VectorParam id="557"  name="shear">
           <InterpolatingParam id="558" interp="linr"  time="0/1" value="0" leadInLength="0/1"  />
           <InterpolatingParam id="559" interp="linr"  time="0/1" value="0" leadInLength="0/1"  />
           <InterpolatingParam id="560" interp="linr"  time="0/1" value="0" leadInLength="0/1"  />
          </VectorParam>
          <VectorParam id="561"  name="scale">
           <InterpolatingParam id="562" interp="linr"  time="0/1" value="1" leadInLength="0/1"  />
           <InterpolatingParam id="563" interp="linr"  time="0/1" value="1" leadInLength="0/1"  />
           <InterpolatingParam id="564" interp="linr"  time="0/1" value="1" leadInLength="0/1"  />
          </VectorParam>
          <VectorParam id="565"  name="anchor">
           <InterpolatingParam id="566" interp="linr"  time="0/1" value="4.5" leadInLength="0/1"  />
           <InterpolatingParam id="567" interp="linr"  time="0/1" value="-66.5" leadInLength="0/1"  />
           <InterpolatingParam id="568" interp="linr"  time="0/1" value="0" leadInLength="0/1"  />
          </VectorParam>
         </Transformer>
         <GenericMixer id="569"  >
          <MetaData>
          </MetaData>
          <Tracks>
           <GenericTrack id="570"  >
            <Attributes>
             <Attribute id="571" value="" name="ident"/>
            </Attributes>
            <MetaData>
             <entry key="IsLocked" val="False"/>
             <entry key="WinTrackHeight" val="0"/>
            </MetaData>
            <Medias>
             <IMFile id="572" start="0" duration="134" scalar="1/1" mediaStart="0/1" mediaDuration="1/1" trackNumber="0" src="10" trimStartSum="0/1" >
              <Transformer>
               <VectorParam id="573"  name="translation">
                <InterpolatingParam id="574" interp="linr"  time="-9999999/1" value="4.3121889231791499" leadInLength="0/1"  />
                <InterpolatingParam id="575" interp="linr"  time="-9999999/1" value="-66.964210526343422" leadInLength="0/1"  />
                <InterpolatingParam id="576" interp="linr"  time="-9999999/1" value="0" leadInLength="0/1"  />
               </VectorParam>
               <VectorParam id="577"  name="rotation">
                <InterpolatingParam id="578" interp="linr"  time="-9999999/1" value="0" leadInLength="0/1"  />
                <InterpolatingParam id="579" interp="linr"  time="-9999999/1" value="0" leadInLength="0/1"  />
                <InterpolatingParam id="580" interp="linr"  time="-9999999/1" value="0" leadInLength="0/1"  />
               </VectorParam>
               <VectorParam id="581"  name="shear">
                <InterpolatingParam id="582" interp="linr"  time="-9999999/1" value="0" leadInLength="0/1"  />
                <InterpolatingParam id="583" interp="linr"  time="-9999999/1" value="0" leadInLength="0/1"  />
                <InterpolatingParam id="584" interp="linr"  time="-9999999/1" value="0" leadInLength="0/1"  />
               </VectorParam>
               <VectorParam id="585"  name="scale">
                <InterpolatingParam id="586" interp="linr"  time="-9999999/1" value="0.85908291856407748" leadInLength="0/1"  />
                <InterpolatingParam id="587" interp="linr"  time="-9999999/1" value="0.85908291856407748" leadInLength="0/1"  />
                <InterpolatingParam id="588" interp="linr"  time="-9999999/1" value="1" leadInLength="0/1"  />
               </VectorParam>
               <VectorParam id="589"  name="anchor">
                <InterpolatingParam id="590" interp="linr"  time="0/1" value="0" leadInLength="0/1"  />
                <InterpolatingParam id="591" interp="linr"  time="0/1" value="0" leadInLength="0/1"  />
                <InterpolatingParam id="592" interp="linr"  time="0/1" value="0" leadInLength="0/1"  />
               </VectorParam>
              </Transformer>
              <Parameters>
               <VectorParam id="593"  name="sourceCrop">
                <InterpolatingParam id="594" interp="linr"  time="0/1" value="0" leadInLength="0/1"  />
                <InterpolatingParam id="595" interp="linr"  time="0/1" value="0" leadInLength="0/1"  />
                <InterpolatingParam id="596" interp="linr"  time="0/1" value="0" leadInLength="0/1"  />
                <InterpolatingParam id="597" interp="linr"  time="0/1" value="0" leadInLength="0/1"  />
               </VectorParam>
               <VectorParam id="598"  name="geometryCrop">
                <InterpolatingParam id="599" interp="linr"  time="-9999999/1" value="0" leadInLength="0/1"  />
                <InterpolatingParam id="600" interp="linr"  time="-9999999/1" value="0" leadInLength="0/1"  />
                <InterpolatingParam id="601" interp="linr"  time="-9999999/1" value="0" leadInLength="0/1"  />
                <InterpolatingParam id="602" interp="linr"  time="-9999999/1" value="0" leadInLength="0/1"  />
               </VectorParam>
               <InterpolatingParam id="603" interp="linr"  time="-9999999/1" value="1" leadInLength="0/1"  name="opacity"/>
              </Parameters>
              <Attributes>
               <Attribute id="604" value="" name="ident"/>
              </Attributes>
              <MetaData>
               <entry key="WinSubProjectDisplayName" val=""/>
              </MetaData>
              <ExtraData>
               <Entry key="ZoomPanBin">
                <ZoomPanBin id="605"  >
                 <ZoomPanKeyframes>
                  <ZoomPanKeyframe id="606" timeRangeEnd="-9999999/1" timeRangeDuration="0/1" interpolaterName="linr"  />
                 </ZoomPanKeyframes>
                </ZoomPanBin>
               </Entry>
              </ExtraData>
             </IMFile>
            </Medias>
           </GenericTrack>
           <GenericTrack id="607"  >
            <Attributes>
             <Attribute id="608" value="" name="ident"/>
            </Attributes>
            <MetaData>
             <entry key="IsLocked" val="False"/>
             <entry key="WinTrackHeight" val="0"/>
            </MetaData>
            <Medias>
             <Callout id="609" start="0" duration="134" scalar="1/1" mediaStart="-60/1" mediaDuration="134/1" >
              <Transformer>
               <VectorParam id="610"  name="translation">
                <InterpolatingParam id="611" interp="linr"  time="-9999999/1" value="-16.421052631591763" leadInLength="0/1"  />
                <InterpolatingParam id="612" interp="linr"  time="-9999999/1" value="-273.63087719301046" leadInLength="0/1"  />
                <InterpolatingParam id="613" interp="linr"  time="-9999999/1" value="-3.4106051316482886e-010" leadInLength="0/1"  />
               </VectorParam>
               <VectorParam id="614"  name="rotation">
                <InterpolatingParam id="615" interp="linr"  time="-9999999/1" value="0" leadInLength="0/1"  />
                <InterpolatingParam id="616" interp="linr"  time="-9999999/1" value="0" leadInLength="0/1"  />
                <InterpolatingParam id="617" interp="linr"  time="-9999999/1" value="0" leadInLength="0/1"  />
               </VectorParam>
               <VectorParam id="618"  name="shear">
                <InterpolatingParam id="619" interp="linr"  time="-9999999/1" value="0" leadInLength="0/1"  />
                <InterpolatingParam id="620" interp="linr"  time="-9999999/1" value="0" leadInLength="0/1"  />
                <InterpolatingParam id="621" interp="linr"  time="-9999999/1" value="0" leadInLength="0/1"  />
               </VectorParam>
               <VectorParam id="622"  name="scale">
                <InterpolatingParam id="623" interp="linr"  time="-9999999/1" value="3.2217105263179429" leadInLength="0/1"  />
                <InterpolatingParam id="624" interp="linr"  time="-9999999/1" value="2.2962962962958171" leadInLength="0/1"  />
                <InterpolatingParam id="625" interp="linr"  time="-9999999/1" value="1" leadInLength="0/1"  />
               </VectorParam>
               <VectorParam id="626"  name="anchor">
                <InterpolatingParam id="627" interp="linr"  time="0/1" value="0" leadInLength="0/1"  />
                <InterpolatingParam id="628" interp="linr"  time="0/1" value="0" leadInLength="0/1"  />
                <InterpolatingParam id="629" interp="linr"  time="0/1" value="0" leadInLength="0/1"  />
               </VectorParam>
              </Transformer>
              <Parameters>
               <VectorParam id="630"  name="sourceCrop">
                <InterpolatingParam id="631" interp="linr"  time="0/1" value="0" leadInLength="0/1"  />
                <InterpolatingParam id="632" interp="linr"  time="0/1" value="0" leadInLength="0/1"  />
                <InterpolatingParam id="633" interp="linr"  time="0/1" value="0" leadInLength="0/1"  />
                <InterpolatingParam id="634" interp="linr"  time="0/1" value="0" leadInLength="0/1"  />
               </VectorParam>
               <VectorParam id="635"  name="geometryCrop">
                <InterpolatingParam id="636" interp="linr"  time="-9999999/1" value="0" leadInLength="0/1"  />
                <InterpolatingParam id="637" interp="linr"  time="-9999999/1" value="0" leadInLength="0/1"  />
                <InterpolatingParam id="638" interp="linr"  time="-9999999/1" value="0" leadInLength="0/1"  />
                <InterpolatingParam id="639" interp="linr"  time="-9999999/1" value="0" leadInLength="0/1"  />
               </VectorParam>
               <InterpolatingParam id="640" interp="linr"  time="-9999999/1" value="1" leadInLength="0/1"  name="opacity"/>
              </Parameters>
              <Attributes>
               <Attribute id="641"  name="vectorNode">
                <VectorNode id="642" kind="TypeWinText"  >
                 <DoubleParameters>
                  <InterpolatingParam id="643" interp="linr"  time="0/1" value="5" leadInLength="0/1"  name="Style"/>
                  <InterpolatingParam id="644" interp="linr"  time="0/1" value="30" leadInLength="0/1"  name="dimensionTime"/>
                  <InterpolatingParam id="645" interp="linr"  time="0/1" value="180" leadInLength="0/1"  name="height"/>
                  <InterpolatingParam id="646" interp="linr"  time="0/1" value="0" leadInLength="0/1"  name="textDropShadow"/>
                  <InterpolatingParam id="647" interp="linr"  time="0/1" value="0" leadInLength="0/1"  name="textIgnoresOpacity"/>
                  <InterpolatingParam id="648" interp="linr"  time="0/1" value="1" leadInLength="0/1"  name="textRectHeight"/>
                  <InterpolatingParam id="649" interp="linr"  time="0/1" value="1" leadInLength="0/1"  name="textRectWidth"/>
                  <InterpolatingParam id="650" interp="linr"  time="0/1" value="0" leadInLength="0/1"  name="textRectX"/>
                  <InterpolatingParam id="651" interp="linr"  time="0/1" value="0" leadInLength="0/1"  name="textRectY"/>
                  <InterpolatingParam id="652" interp="linr"  time="0/1" value="0" leadInLength="0/1"  name="textVerticalAlign"/>
                  <InterpolatingParam id="653" interp="linr"  time="0/1" value="320" leadInLength="0/1"  name="width"/>
                 </DoubleParameters>
                 <StringParameters>
                  <Parameter id="654"  name="filename">
                   <Keyframes>
                   <Keyframe id="655"  time="0/1" value="C:\Program Files (x86)\TechSmith\Camtasia Studio 8\Media\Studio\Callouts\trans_100x100.xml" leadInLength="0/1"  />
                   </Keyframes>
                  </Parameter>
                  <Parameter id="656"  name="name">
                   <Keyframes>
                   <Keyframe id="657"  time="0/1" value="Text" leadInLength="0/1"  />
                   </Keyframes>
                  </Parameter>
                  <Parameter id="658"  name="text">
                   <Keyframes>
                   <Keyframe id="659"  time="0/1" value="{\rtf1\ansi\ansicpg1252\deff0\deflang1033{\fonttbl{\f0\fswiss\fprq2\fcharset0 Arial;}}&#xD;&#xa;{\colortbl ;\red242\green242\blue242;\red0\green0\blue0;}&#xD;&#xa;\viewkind4\uc1\pard\qc\cf1\b\f0\fs56 This work was supported by a NASA\par&#xD;&#xa;Early Career Faculty fellowship NNX12AQ47GS02. We are grateful for this support.\cf2\b0\fs96\par&#xD;&#xa;}&#xD;&#xa;" leadInLength="0/1"  />
                   </Keyframes>
                  </Parameter>
                  <Parameter id="660"  name="xmlContent">
                   <Keyframes>
                   <Keyframe id="661"  time="0/1" value="﻿&lt;?xml version=&quot;1.0&quot;?&gt;&#xa;&#xa;&lt;Overlay version=&quot;1.0.1&quot;&gt;&#xa;&#xa;&lt;Overlay_Filename&gt;trans_100x100.png&lt;/Overlay_Filename&gt;&#xa;&lt;Overlay_Name&gt;Text&lt;/Overlay_Name&gt;&#xa;&lt;Text_Top&gt;0&lt;/Text_Top&gt;&#xa;&lt;Text_Left&gt;0&lt;/Text_Left&gt;&#xa;&lt;Text_Bottom&gt;0&lt;/Text_Bottom&gt;&#xa;&lt;Text_Right&gt;0&lt;/Text_Right&gt;&#xa;&lt;Fill_Color&gt;0&lt;/Fill_Color&gt;&#xa;&lt;Border_Color&gt;0&lt;/Border_Color&gt;&#xa;&lt;Style&gt;5&lt;/Style&gt;&#xa;&lt;/Overlay&gt;" leadInLength="0/1"  />
                   </Keyframes>
                  </Parameter>
                 </StringParameters>
                </VectorNode>
               </Attribute>
              </Attributes>
              <MetaData>
               <entry key="WinSubProjectDisplayName" val=""/>
              </MetaData>
              <LeftEdgeMods length="90/1" groupName="OpacityFade">
               <EdgeMod parameter="640">
                <FadeInFunc id="171"  />
               </EdgeMod>
              </LeftEdgeMods>
              <RightEdgeMods length="0/1" groupName="OpacityFade">
               <EdgeMod parameter="640">
                <FadeOutFunc id="172"  />
               </EdgeMod>
              </RightEdgeMods>
              <ExtraData>
               <Entry key="ZoomPanBin">
                <ZoomPanBin id="662"  >
                 <ZoomPanKeyframes>
                  <ZoomPanKeyframe id="663" timeRangeEnd="-9999999/1" timeRangeDuration="0/1" interpolaterName="linr"  />
                 </ZoomPanKeyframes>
                </ZoomPanBin>
               </Entry>
              </ExtraData>
             </Callout>
            </Medias>
           </GenericTrack>
           <GenericTrack id="664"  >
            <Attributes>
             <Attribute id="665" value="" name="ident"/>
            </Attributes>
            <MetaData>
             <entry key="IsLocked" val="False"/>
             <entry key="WinTrackHeight" val="0"/>
            </MetaData>
            <Medias>
             <UnifiedMedia id="666"  >
              <AudioTransition id="667" start="0" duration="90" >
               <Parameters>
                <InterpolatingParam id="668" interp="linr"  time="0/1" value="1" leadInLength="0/1"  name="volume"/>
                <Parameter id="669"  name="captions"/>
               </Parameters>
               <Effects>
                <GenericEffect id="670" name = "AudioTransition" >
                 <Parameters>
                 <Parameter id="671"   name="audioEdgeModType">
                  <Keyframes>
                  <Keyframe id="672"  time="0/1" value="0" leadInLength="0/1"  />
                  </Keyframes>
                 </Parameter>
                 <Parameter id="673"   name="audioTransitionType">
                  <Keyframes>
                  <Keyframe id="674"  time="0/1" value="" leadInLength="0/1"  />
                  </Keyframes>
                 </Parameter>
                 </Parameters>
                 <MetaData>
                 </MetaData>
                </GenericEffect>
               </Effects>
               <Attributes>
                <Attribute id="675" value="" name="ident"/>
                <Attribute id="676" value="0" name="sampleRate"/>
                <Attribute id="677" value="0" name="bitDepth"/>
                <Attribute id="678" value="1" name="gain"/>
               </Attributes>
              </AudioTransition>
              <ImageTransition id="679" start="0" duration="90" >
               <Transformer>
                <VectorParam id="680"  name="translation">
                 <InterpolatingParam id="681" interp="linr"  time="0/1" value="0" leadInLength="0/1"  />
                 <InterpolatingParam id="682" interp="linr"  time="0/1" value="0" leadInLength="0/1"  />
                 <InterpolatingParam id="683" interp="linr"  time="0/1" value="0" leadInLength="0/1"  />
                </VectorParam>
                <VectorParam id="684"  name="rotation">
                 <InterpolatingParam id="685" interp="linr"  time="0/1" value="0" leadInLength="0/1"  />
                 <InterpolatingParam id="686" interp="linr"  time="0/1" value="0" leadInLength="0/1"  />
                 <InterpolatingParam id="687" interp="linr"  time="0/1" value="0" leadInLength="0/1"  />
                </VectorParam>
                <VectorParam id="688"  name="shear">
                 <InterpolatingParam id="689" interp="linr"  time="0/1" value="0" leadInLength="0/1"  />
                 <InterpolatingParam id="690" interp="linr"  time="0/1" value="0" leadInLength="0/1"  />
                 <InterpolatingParam id="691" interp="linr"  time="0/1" value="0" leadInLength="0/1"  />
                </VectorParam>
                <VectorParam id="692"  name="scale">
                 <InterpolatingParam id="693" interp="linr"  time="0/1" value="1" leadInLength="0/1"  />
                 <InterpolatingParam id="694" interp="linr"  time="0/1" value="1" leadInLength="0/1"  />
                 <InterpolatingParam id="695" interp="linr"  time="0/1" value="1" leadInLength="0/1"  />
                </VectorParam>
                <VectorParam id="696"  name="anchor">
                 <InterpolatingParam id="697" interp="linr"  time="0/1" value="0" leadInLength="0/1"  />
                 <InterpolatingParam id="698" interp="linr"  time="0/1" value="0" leadInLength="0/1"  />
                 <InterpolatingParam id="699" interp="linr"  time="0/1" value="0" leadInLength="0/1"  />
                </VectorParam>
               </Transformer>
               <Parameters>
                <VectorParam id="700"  name="sourceCrop">
                 <InterpolatingParam id="701" interp="linr"  time="0/1" value="0" leadInLength="0/1"  />
                 <InterpolatingParam id="702" interp="linr"  time="0/1" value="0" leadInLength="0/1"  />
                 <InterpolatingParam id="703" interp="linr"  time="0/1" value="0" leadInLength="0/1"  />
                 <InterpolatingParam id="704" interp="linr"  time="0/1" value="0" leadInLength="0/1"  />
                </VectorParam>
                <VectorParam id="705"  name="geometryCrop">
                 <InterpolatingParam id="706" interp="linr"  time="0/1" value="0" leadInLength="0/1"  />
                 <InterpolatingParam id="707" interp="linr"  time="0/1" value="0" leadInLength="0/1"  />
                 <InterpolatingParam id="708" interp="linr"  time="0/1" value="0" leadInLength="0/1"  />
                 <InterpolatingParam id="709" interp="linr"  time="0/1" value="0" leadInLength="0/1"  />
                </VectorParam>
                <InterpolatingParam id="710" interp="linr"  time="0/1" value="1" leadInLength="0/1"  name="opacity"/>
               </Parameters>
               <Effects>
                <GenericEffect id="711" name = "VisualTransition" >
                 <Parameters>
                 <InterpolatingParam id="712" interp="linr"  time="0/1" value="0.5" leadInLength="0/1"   name="leftFramePercentage"/>
                 <InterpolatingParam id="713" interp="linr"  time="0/1" value="0.5" leadInLength="0/1"   name="rightFramePercentage"/>
                 <Parameter id="714"   name="visualEdgeModType">
                  <Keyframes>
                  <Keyframe id="715"  time="0/1" value="1" leadInLength="0/1"  />
                  </Keyframes>
                 </Parameter>
                 <Parameter id="716"   name="visualTransitionType">
                  <Keyframes>
                  <Keyframe id="717"  time="0/1" value="Dissolve" leadInLength="0/1"  />
                  </Keyframes>
                 </Parameter>
                 </Parameters>
                 <MetaData>
                 </MetaData>
                </GenericEffect>
               </Effects>
               <Attributes>
                <Attribute id="718" value="" name="ident"/>
               </Attributes>
               <ExtraData>
                <Entry key="ZoomPanBin">
                 <ZoomPanBin id="719"  >
                  <ZoomPanKeyframes>
                  </ZoomPanKeyframes>
                 </ZoomPanBin>
                </Entry>
               </ExtraData>
              </ImageTransition>
              <MetaData>
               <entry key="WinSubProjectDisplayName" val=""/>
              </MetaData>
             </UnifiedMedia>
             <IMFile id="720" start="90" duration="44" scalar="1/1" mediaStart="0/1" mediaDuration="1/1" trackNumber="0" src="11" trimStartSum="152/1" >
              <Transformer>
               <VectorParam id="721"  name="translation">
                <InterpolatingParam id="722" interp="linr"  >
                 <Keyframes>
                 <Keyframe id="723"  time="-9999999/1" value="12.750000000012733" leadInLength="0/1"  />
                 <Keyframe id="724"  time="62/1" value="12.750000000012733" leadInLength="1/1"  interpolater="leadin-linr"  />
                 </Keyframes>
                </InterpolatingParam>
                <InterpolatingParam id="725" interp="linr"  >
                 <Keyframes>
                 <Keyframe id="726"  time="-9999999/1" value="61.578947368396882" leadInLength="0/1"  />
                 <Keyframe id="727"  time="62/1" value="61.578947368396882" leadInLength="1/1"  interpolater="leadin-linr"  />
                 </Keyframes>
                </InterpolatingParam>
                <InterpolatingParam id="728" interp="linr"  >
                 <Keyframes>
                 <Keyframe id="729"  time="-9999999/1" value="0" leadInLength="0/1"  />
                 <Keyframe id="730"  time="62/1" value="0" leadInLength="1/1"  interpolater="leadin-linr"  />
                 </Keyframes>
                </InterpolatingParam>
               </VectorParam>
               <VectorParam id="731"  name="rotation">
                <InterpolatingParam id="732" interp="linr"  >
                 <Keyframes>
                 <Keyframe id="733"  time="-9999999/1" value="0" leadInLength="0/1"  />
                 <Keyframe id="734"  time="62/1" value="0" leadInLength="1/1"  interpolater="leadin-linr"  />
                 </Keyframes>
                </InterpolatingParam>
                <InterpolatingParam id="735" interp="linr"  >
                 <Keyframes>
                 <Keyframe id="736"  time="-9999999/1" value="0" leadInLength="0/1"  />
                 <Keyframe id="737"  time="62/1" value="0" leadInLength="1/1"  interpolater="leadin-linr"  />
                 </Keyframes>
                </InterpolatingParam>
                <InterpolatingParam id="738" interp="linr"  >
                 <Keyframes>
                 <Keyframe id="739"  time="-9999999/1" value="0" leadInLength="0/1"  />
                 <Keyframe id="740"  time="62/1" value="0" leadInLength="1/1"  interpolater="leadin-linr"  />
                 </Keyframes>
                </InterpolatingParam>
               </VectorParam>
               <VectorParam id="741"  name="shear">
                <InterpolatingParam id="742" interp="linr"  >
                 <Keyframes>
                 <Keyframe id="743"  time="-9999999/1" value="0" leadInLength="0/1"  />
                 <Keyframe id="744"  time="62/1" value="0" leadInLength="1/1"  interpolater="leadin-linr"  />
                 </Keyframes>
                </InterpolatingParam>
                <InterpolatingParam id="745" interp="linr"  >
                 <Keyframes>
                 <Keyframe id="746"  time="-9999999/1" value="0" leadInLength="0/1"  />
                 <Keyframe id="747"  time="62/1" value="0" leadInLength="1/1"  interpolater="leadin-linr"  />
                 </Keyframes>
                </InterpolatingParam>
                <InterpolatingParam id="748" interp="linr"  >
                 <Keyframes>
                 <Keyframe id="749"  time="-9999999/1" value="0" leadInLength="0/1"  />
                 <Keyframe id="750"  time="62/1" value="0" leadInLength="1/1"  interpolater="leadin-linr"  />
                 </Keyframes>
                </InterpolatingParam>
               </VectorParam>
               <VectorParam id="751"  name="scale">
                <InterpolatingParam id="752" interp="linr"  >
                 <Keyframes>
                 <Keyframe id="753"  time="-9999999/1" value="1.7500000000001066" leadInLength="0/1"  />
                 <Keyframe id="754"  time="62/1" value="1.7500000000001066" leadInLength="1/1"  interpolater="leadin-linr"  />
                 </Keyframes>
                </InterpolatingParam>
                <InterpolatingParam id="755" interp="linr"  >
                 <Keyframes>
                 <Keyframe id="756"  time="-9999999/1" value="1.7500000000001066" leadInLength="0/1"  />
                 <Keyframe id="757"  time="62/1" value="1.7500000000001066" leadInLength="1/1"  interpolater="leadin-linr"  />
                 </Keyframes>
                </InterpolatingParam>
                <InterpolatingParam id="758" interp="linr"  >
                 <Keyframes>
                 <Keyframe id="759"  time="-9999999/1" value="1" leadInLength="0/1"  />
                 <Keyframe id="760"  time="62/1" value="1" leadInLength="1/1"  interpolater="leadin-linr"  />
                 </Keyframes>
                </InterpolatingParam>
               </VectorParam>
               <VectorParam id="761"  name="anchor">
                <InterpolatingParam id="762" interp="linr"  time="0/1" value="0" leadInLength="0/1"  />
                <InterpolatingParam id="763" interp="linr"  time="0/1" value="0" leadInLength="0/1"  />
                <InterpolatingParam id="764" interp="linr"  time="0/1" value="0" leadInLength="0/1"  />
               </VectorParam>
              </Transformer>
              <Parameters>
               <VectorParam id="765"  name="sourceCrop">
                <InterpolatingParam id="766" interp="linr"  time="0/1" value="0" leadInLength="0/1"  />
                <InterpolatingParam id="767" interp="linr"  time="0/1" value="0" leadInLength="0/1"  />
                <InterpolatingParam id="768" interp="linr"  time="0/1" value="0" leadInLength="0/1"  />
                <InterpolatingParam id="769" interp="linr"  time="0/1" value="0" leadInLength="0/1"  />
               </VectorParam>
               <VectorParam id="770"  name="geometryCrop">
                <InterpolatingParam id="771" interp="linr"  >
                 <Keyframes>
                 <Keyframe id="772"  time="-9999999/1" value="0" leadInLength="0/1"  />
                 <Keyframe id="773"  time="62/1" value="0" leadInLength="1/1"  interpolater="leadin-linr"  />
                 </Keyframes>
                </InterpolatingParam>
                <InterpolatingParam id="774" interp="linr"  >
                 <Keyframes>
                 <Keyframe id="775"  time="-9999999/1" value="0" leadInLength="0/1"  />
                 <Keyframe id="776"  time="62/1" value="0" leadInLength="1/1"  interpolater="leadin-linr"  />
                 </Keyframes>
                </InterpolatingParam>
                <InterpolatingParam id="777" interp="linr"  >
                 <Keyframes>
                 <Keyframe id="778"  time="-9999999/1" value="0" leadInLength="0/1"  />
                 <Keyframe id="779"  time="62/1" value="0" leadInLength="1/1"  interpolater="leadin-linr"  />
                 </Keyframes>
                </InterpolatingParam>
                <InterpolatingParam id="780" interp="linr"  >
                 <Keyframes>
                 <Keyframe id="781"  time="-9999999/1" value="0" leadInLength="0/1"  />
                 <Keyframe id="782"  time="62/1" value="0" leadInLength="1/1"  interpolater="leadin-linr"  />
                 </Keyframes>
                </InterpolatingParam>
               </VectorParam>
               <InterpolatingParam id="783" interp="linr"  name="opacity">
                <Keyframes>
                <Keyframe id="784"  time="-9999999/1" value="1" leadInLength="0/1"  />
                <Keyframe id="785"  time="62/1" value="1" leadInLength="1/1"  interpolater="leadin-linr"  />
                </Keyframes>
               </InterpolatingParam>
              </Parameters>
              <Attributes>
               <Attribute id="786" value="" name="ident"/>
              </Attributes>
              <MetaData>
               <entry key="WinSubProjectDisplayName" val=""/>
              </MetaData>
              <ExtraData>
               <Entry key="ZoomPanBin">
                <ZoomPanBin id="787"  >
                 <ZoomPanKeyframes>
                  <ZoomPanKeyframe id="788" timeRangeEnd="-9999999/1" timeRangeDuration="0/1" interpolaterName="linr"  />
                  <ZoomPanKeyframe id="789" timeRangeEnd="62/1" timeRangeDuration="1/1" interpolaterName="linr"  />
                 </ZoomPanKeyframes>
                </ZoomPanBin>
               </Entry>
              </ExtraData>
             </IMFile>
            </Medias>
           </GenericTrack>
          </Tracks>
         </GenericMixer>
         <MetaData>
          <entry key="IsGroupExpanded" val="False"/>
          <entry key="WinSubProjectDisplayName" val="credits"/>
         </MetaData>
         <ExtraData>
          <Entry key="ZoomPanBin">
           <ZoomPanBin id="790"  >
            <ZoomPanKeyframes>
            </ZoomPanKeyframes>
           </ZoomPanBin>
          </Entry>
         </ExtraData>
        </Group>
       </Medias>
      </GenericTrack>
      <GenericTrack id="791"  >
       <Attributes>
        <Attribute id="792" value="" name="ident"/>
       </Attributes>
       <MetaData>
        <entry key="IsLocked" val="False"/>
        <entry key="WinTrackHeight" val="40.52272727272728"/>
       </MetaData>
       <Medias>
        <IMFile id="793" start="488" duration="41" scalar="1/1" mediaStart="0/1" mediaDuration="1/1" trackNumber="0" src="19" trimStartSum="0/1" >
         <Transformer>
          <VectorParam id="794"  name="translation">
           <InterpolatingParam id="795" interp="linr"  time="-9999999/1" value="314.52631578953441" leadInLength="0/1"  />
           <InterpolatingParam id="796" interp="linr"  time="-9999999/1" value="-1.2631578947830346" leadInLength="0/1"  />
           <InterpolatingParam id="797" interp="linr"  time="-9999999/1" value="0" leadInLength="0/1"  />
          </VectorParam>
          <VectorParam id="798"  name="rotation">
           <InterpolatingParam id="799" interp="linr"  time="-9999999/1" value="0" leadInLength="0/1"  />
           <InterpolatingParam id="800" interp="linr"  time="-9999999/1" value="0" leadInLength="0/1"  />
           <InterpolatingParam id="801" interp="linr"  time="-9999999/1" value="0" leadInLength="0/1"  />
          </VectorParam>
          <VectorParam id="802"  name="shear">
           <InterpolatingParam id="803" interp="linr"  time="-9999999/1" value="0" leadInLength="0/1"  />
           <InterpolatingParam id="804" interp="linr"  time="-9999999/1" value="0" leadInLength="0/1"  />
           <InterpolatingParam id="805" interp="linr"  time="-9999999/1" value="0" leadInLength="0/1"  />
          </VectorParam>
          <VectorParam id="806"  name="scale">
           <InterpolatingParam id="807" interp="linr"  time="-9999999/1" value="2.0714285714291614" leadInLength="0/1"  />
           <InterpolatingParam id="808" interp="linr"  time="-9999999/1" value="2.0714285714291614" leadInLength="0/1"  />
           <InterpolatingParam id="809" interp="linr"  time="-9999999/1" value="0.99999999999999978" leadInLength="0/1"  />
          </VectorParam>
          <VectorParam id="810"  name="anchor">
           <InterpolatingParam id="811" interp="linr"  time="0/1" value="0" leadInLength="0/1"  />
           <InterpolatingParam id="812" interp="linr"  time="0/1" value="0" leadInLength="0/1"  />
           <InterpolatingParam id="813" interp="linr"  time="0/1" value="0" leadInLength="0/1"  />
          </VectorParam>
         </Transformer>
         <Parameters>
          <VectorParam id="814"  name="sourceCrop">
           <InterpolatingParam id="815" interp="linr"  time="0/1" value="0" leadInLength="0/1"  />
           <InterpolatingParam id="816" interp="linr"  time="0/1" value="0" leadInLength="0/1"  />
           <InterpolatingParam id="817" interp="linr"  time="0/1" value="0" leadInLength="0/1"  />
           <InterpolatingParam id="818" interp="linr"  time="0/1" value="0" leadInLength="0/1"  />
          </VectorParam>
          <VectorParam id="819"  name="geometryCrop">
           <InterpolatingParam id="820" interp="linr"  time="-9999999/1" value="0" leadInLength="0/1"  />
           <InterpolatingParam id="821" interp="linr"  time="-9999999/1" value="0" leadInLength="0/1"  />
           <InterpolatingParam id="822" interp="linr"  time="-9999999/1" value="0" leadInLength="0/1"  />
           <InterpolatingParam id="823" interp="linr"  time="-9999999/1" value="0" leadInLength="0/1"  />
          </VectorParam>
          <InterpolatingParam id="824" interp="linr"  time="-9999999/1" value="1" leadInLength="0/1"  name="opacity"/>
         </Parameters>
         <Attributes>
          <Attribute id="825" value="" name="ident"/>
         </Attributes>
         <MetaData>
          <entry key="WinSubProjectDisplayName" val=""/>
         </MetaData>
         <ExtraData>
          <Entry key="ZoomPanBin">
           <ZoomPanBin id="826"  >
            <ZoomPanKeyframes>
             <ZoomPanKeyframe id="827" timeRangeEnd="-9999999/1" timeRangeDuration="0/1" interpolaterName="linr"  />
            </ZoomPanKeyframes>
           </ZoomPanBin>
          </Entry>
         </ExtraData>
        </IMFile>
        <IMFile id="828" start="539" duration="40" scalar="1/1" mediaStart="0/1" mediaDuration="1/1" trackNumber="0" src="18" trimStartSum="0/1" >
         <Transformer>
          <VectorParam id="829"  name="translation">
           <InterpolatingParam id="830" interp="linr"  time="-9999999/1" value="312.7631578945024" leadInLength="0/1"  />
           <InterpolatingParam id="831" interp="linr"  time="-9999999/1" value="-8.7631578946367465" leadInLength="0/1"  />
           <InterpolatingParam id="832" interp="linr"  time="-9999999/1" value="3.4106051316482881e-010" leadInLength="0/1"  />
          </VectorParam>
          <VectorParam id="833"  name="rotation">
           <InterpolatingParam id="834" interp="linr"  time="-9999999/1" value="0" leadInLength="0/1"  />
           <InterpolatingParam id="835" interp="linr"  time="-9999999/1" value="0" leadInLength="0/1"  />
           <InterpolatingParam id="836" interp="linr"  time="-9999999/1" value="0" leadInLength="0/1"  />
          </VectorParam>
          <VectorParam id="837"  name="shear">
           <InterpolatingParam id="838" interp="linr"  time="-9999999/1" value="0" leadInLength="0/1"  />
           <InterpolatingParam id="839" interp="linr"  time="-9999999/1" value="0" leadInLength="0/1"  />
           <InterpolatingParam id="840" interp="linr"  time="-9999999/1" value="0" leadInLength="0/1"  />
          </VectorParam>
          <VectorParam id="841"  name="scale">
           <InterpolatingParam id="842" interp="linr"  time="-9999999/1" value="1.9656140350866222" leadInLength="0/1"  />
           <InterpolatingParam id="843" interp="linr"  time="-9999999/1" value="1.9656140350866222" leadInLength="0/1"  />
           <InterpolatingParam id="844" interp="linr"  time="-9999999/1" value="1" leadInLength="0/1"  />
          </VectorParam>
          <VectorParam id="845"  name="anchor">
           <InterpolatingParam id="846" interp="linr"  time="0/1" value="0" leadInLength="0/1"  />
           <InterpolatingParam id="847" interp="linr"  time="0/1" value="0" leadInLength="0/1"  />
           <InterpolatingParam id="848" interp="linr"  time="0/1" value="0" leadInLength="0/1"  />
          </VectorParam>
         </Transformer>
         <Parameters>
          <VectorParam id="849"  name="sourceCrop">
           <InterpolatingParam id="850" interp="linr"  time="0/1" value="0" leadInLength="0/1"  />
           <InterpolatingParam id="851" interp="linr"  time="0/1" value="0" leadInLength="0/1"  />
           <InterpolatingParam id="852" interp="linr"  time="0/1" value="0" leadInLength="0/1"  />
           <InterpolatingParam id="853" interp="linr"  time="0/1" value="0" leadInLength="0/1"  />
          </VectorParam>
          <VectorParam id="854"  name="geometryCrop">
           <InterpolatingParam id="855" interp="linr"  time="-9999999/1" value="0" leadInLength="0/1"  />
           <InterpolatingParam id="856" interp="linr"  time="-9999999/1" value="0" leadInLength="0/1"  />
           <InterpolatingParam id="857" interp="linr"  time="-9999999/1" value="0" leadInLength="0/1"  />
           <InterpolatingParam id="858" interp="linr"  time="-9999999/1" value="0" leadInLength="0/1"  />
          </VectorParam>
          <InterpolatingParam id="859" interp="linr"  time="-9999999/1" value="1" leadInLength="0/1"  name="opacity"/>
         </Parameters>
         <Attributes>
          <Attribute id="860" value="" name="ident"/>
         </Attributes>
         <MetaData>
          <entry key="WinSubProjectDisplayName" val=""/>
         </MetaData>
         <ExtraData>
          <Entry key="ZoomPanBin">
           <ZoomPanBin id="861"  >
            <ZoomPanKeyframes>
             <ZoomPanKeyframe id="862" timeRangeEnd="-9999999/1" timeRangeDuration="0/1" interpolaterName="linr"  />
            </ZoomPanKeyframes>
           </ZoomPanBin>
          </Entry>
         </ExtraData>
        </IMFile>
        <Group id="863" start="589" duration="171" scalar="1" mediaStart="0" mediaDuration="171" baseWidthAttr="0" baseHeightAttr="0"  >
         <Parameters>
          <VectorParam id="864"  name="sourceCrop">
           <InterpolatingParam id="865" interp="linr"  time="0/1" value="0" leadInLength="0/1"  />
           <InterpolatingParam id="866" interp="linr"  time="0/1" value="0" leadInLength="0/1"  />
           <InterpolatingParam id="867" interp="linr"  time="0/1" value="0" leadInLength="0/1"  />
           <InterpolatingParam id="868" interp="linr"  time="0/1" value="0" leadInLength="0/1"  />
          </VectorParam>
          <VectorParam id="869"  name="geometryCrop">
           <InterpolatingParam id="870" interp="linr"  time="0/1" value="0" leadInLength="0/1"  />
           <InterpolatingParam id="871" interp="linr"  time="0/1" value="0" leadInLength="0/1"  />
           <InterpolatingParam id="872" interp="linr"  time="0/1" value="0" leadInLength="0/1"  />
           <InterpolatingParam id="873" interp="linr"  time="0/1" value="0" leadInLength="0/1"  />
          </VectorParam>
          <InterpolatingParam id="874" interp="linr"  time="0/1" value="1" leadInLength="0/1"  name="opacity"/>
          <Parameter id="875"  name="captions"/>
          <InterpolatingParam id="876" interp="linr"  time="0/1" value="1" leadInLength="0/1"  name="volume"/>
         </Parameters>
         <Transformer>
          <VectorParam id="877"  name="translation">
           <InterpolatingParam id="878" interp="linr"  time="0/1" value="340.5" leadInLength="0/1"  />
           <InterpolatingParam id="879" interp="linr"  time="0/1" value="17" leadInLength="0/1"  />
           <InterpolatingParam id="880" interp="linr"  time="0/1" value="0" leadInLength="0/1"  />
          </VectorParam>
          <VectorParam id="881"  name="rotation">
           <InterpolatingParam id="882" interp="linr"  time="0/1" value="0" leadInLength="0/1"  />
           <InterpolatingParam id="883" interp="linr"  time="0/1" value="0" leadInLength="0/1"  />
           <InterpolatingParam id="884" interp="linr"  time="0/1" value="0" leadInLength="0/1"  />
          </VectorParam>
          <VectorParam id="885"  name="shear">
           <InterpolatingParam id="886" interp="linr"  time="0/1" value="0" leadInLength="0/1"  />
           <InterpolatingParam id="887" interp="linr"  time="0/1" value="0" leadInLength="0/1"  />
           <InterpolatingParam id="888" interp="linr"  time="0/1" value="0" leadInLength="0/1"  />
          </VectorParam>
          <VectorParam id="889"  name="scale">
           <InterpolatingParam id="890" interp="linr"  time="0/1" value="1" leadInLength="0/1"  />
           <InterpolatingParam id="891" interp="linr"  time="0/1" value="1" leadInLength="0/1"  />
           <InterpolatingParam id="892" interp="linr"  time="0/1" value="1" leadInLength="0/1"  />
          </VectorParam>
          <VectorParam id="893"  name="anchor">
           <InterpolatingParam id="894" interp="linr"  time="0/1" value="340.5" leadInLength="0/1"  />
           <InterpolatingParam id="895" interp="linr"  time="0/1" value="17" leadInLength="0/1"  />
           <InterpolatingParam id="896" interp="linr"  time="0/1" value="0" leadInLength="0/1"  />
          </VectorParam>
         </Transformer>
         <GenericMixer id="897"  >
          <MetaData>
          </MetaData>
          <Tracks>
           <GenericTrack id="898"  >
            <Attributes>
             <Attribute id="899" value="" name="ident"/>
            </Attributes>
            <MetaData>
             <entry key="IsLocked" val="False"/>
             <entry key="WinTrackHeight" val="0"/>
            </MetaData>
            <Medias>
             <IMFile id="900" start="0" duration="171" scalar="1/1" mediaStart="0/1" mediaDuration="1/1" trackNumber="0" src="9" trimStartSum="192/1" >
              <Transformer>
               <VectorParam id="901"  name="translation">
                <InterpolatingParam id="902" interp="linr"  time="-9999999/1" value="330.91626293755724" leadInLength="0/1"  />
                <InterpolatingParam id="903" interp="linr"  time="-9999999/1" value="-164.5547957358414" leadInLength="0/1"  />
                <InterpolatingParam id="904" interp="linr"  time="-9999999/1" value="3.4106051316482829e-010" leadInLength="0/1"  />
               </VectorParam>
               <VectorParam id="905"  name="rotation">
                <InterpolatingParam id="906" interp="linr"  time="-9999999/1" value="0" leadInLength="0/1"  />
                <InterpolatingParam id="907" interp="linr"  time="-9999999/1" value="0" leadInLength="0/1"  />
                <InterpolatingParam id="908" interp="linr"  time="-9999999/1" value="0" leadInLength="0/1"  />
               </VectorParam>
               <VectorParam id="909"  name="shear">
                <InterpolatingParam id="910" interp="linr"  time="-9999999/1" value="0" leadInLength="0/1"  />
                <InterpolatingParam id="911" interp="linr"  time="-9999999/1" value="0" leadInLength="0/1"  />
                <InterpolatingParam id="912" interp="linr"  time="-9999999/1" value="0" leadInLength="0/1"  />
               </VectorParam>
               <VectorParam id="913"  name="scale">
                <InterpolatingParam id="914" interp="linr"  time="-9999999/1" value="0.92126300167567454" leadInLength="0/1"  />
                <InterpolatingParam id="915" interp="linr"  time="-9999999/1" value="0.92126300167567476" leadInLength="0/1"  />
                <InterpolatingParam id="916" interp="linr"  time="-9999999/1" value="0.99999999999999933" leadInLength="0/1"  />
               </VectorParam>
               <VectorParam id="917"  name="anchor">
                <InterpolatingParam id="918" interp="linr"  time="0/1" value="0" leadInLength="0/1"  />
                <InterpolatingParam id="919" interp="linr"  time="0/1" value="0" leadInLength="0/1"  />
                <InterpolatingParam id="920" interp="linr"  time="0/1" value="0" leadInLength="0/1"  />
               </VectorParam>
              </Transformer>
              <Parameters>
               <VectorParam id="921"  name="sourceCrop">
                <InterpolatingParam id="922" interp="linr"  time="0/1" value="0" leadInLength="0/1"  />
                <InterpolatingParam id="923" interp="linr"  time="0/1" value="0" leadInLength="0/1"  />
                <InterpolatingParam id="924" interp="linr"  time="0/1" value="0" leadInLength="0/1"  />
                <InterpolatingParam id="925" interp="linr"  time="0/1" value="0" leadInLength="0/1"  />
               </VectorParam>
               <VectorParam id="926"  name="geometryCrop">
                <InterpolatingParam id="927" interp="linr"  time="-9999999/1" value="21.937846498461681" leadInLength="0/1"  />
                <InterpolatingParam id="928" interp="linr"  time="-9999999/1" value="0" leadInLength="0/1"  />
                <InterpolatingParam id="929" interp="linr"  time="-9999999/1" value="0" leadInLength="0/1"  />
                <InterpolatingParam id="930" interp="linr"  time="-9999999/1" value="0" leadInLength="0/1"  />
               </VectorParam>
               <InterpolatingParam id="931" interp="linr"  time="-9999999/1" value="1" leadInLength="0/1"  name="opacity"/>
              </Parameters>
              <Attributes>
               <Attribute id="932" value="" name="ident"/>
              </Attributes>
              <MetaData>
               <entry key="WinSubProjectDisplayName" val=""/>
              </MetaData>
              <ExtraData>
               <Entry key="ZoomPanBin">
                <ZoomPanBin id="933"  >
                 <ZoomPanKeyframes>
                  <ZoomPanKeyframe id="934" timeRangeEnd="-9999999/1" timeRangeDuration="0/1" interpolaterName="linr"  />
                 </ZoomPanKeyframes>
                </ZoomPanBin>
               </Entry>
              </ExtraData>
             </IMFile>
            </Medias>
           </GenericTrack>
           <GenericTrack id="935"  >
            <Attributes>
             <Attribute id="936" value="" name="ident"/>
            </Attributes>
            <MetaData>
             <entry key="IsLocked" val="False"/>
             <entry key="WinTrackHeight" val="0"/>
            </MetaData>
            <Medias>
             <IMFile id="937" start="0" duration="171" scalar="1/1" mediaStart="0/1" mediaDuration="1/1" trackNumber="0" src="8" trimStartSum="168/1" >
              <Transformer>
               <VectorParam id="938"  name="translation">
                <InterpolatingParam id="939" interp="linr"  time="-9999999/1" value="315.33731556897692" leadInLength="0/1"  />
                <InterpolatingParam id="940" interp="linr"  time="-9999999/1" value="121.76386913233218" leadInLength="0/1"  />
                <InterpolatingParam id="941" interp="linr"  time="-9999999/1" value="0" leadInLength="0/1"  />
               </VectorParam>
               <VectorParam id="942"  name="rotation">
                <InterpolatingParam id="943" interp="linr"  time="-9999999/1" value="0" leadInLength="0/1"  />
                <InterpolatingParam id="944" interp="linr"  time="-9999999/1" value="0" leadInLength="0/1"  />
                <InterpolatingParam id="945" interp="linr"  time="-9999999/1" value="0" leadInLength="0/1"  />
               </VectorParam>
               <VectorParam id="946"  name="shear">
                <InterpolatingParam id="947" interp="linr"  time="-9999999/1" value="0" leadInLength="0/1"  />
                <InterpolatingParam id="948" interp="linr"  time="-9999999/1" value="0" leadInLength="0/1"  />
                <InterpolatingParam id="949" interp="linr"  time="-9999999/1" value="0" leadInLength="0/1"  />
               </VectorParam>
               <VectorParam id="950"  name="scale">
                <InterpolatingParam id="951" interp="linr"  time="-9999999/1" value="0.47083926031294432" leadInLength="0/1"  />
                <InterpolatingParam id="952" interp="linr"  time="-9999999/1" value="0.47083926031294515" leadInLength="0/1"  />
                <InterpolatingParam id="953" interp="linr"  time="-9999999/1" value="1" leadInLength="0/1"  />
               </VectorParam>
               <VectorParam id="954"  name="anchor">
                <InterpolatingParam id="955" interp="linr"  time="0/1" value="0" leadInLength="0/1"  />
                <InterpolatingParam id="956" interp="linr"  time="0/1" value="0" leadInLength="0/1"  />
                <InterpolatingParam id="957" interp="linr"  time="0/1" value="0" leadInLength="0/1"  />
               </VectorParam>
              </Transformer>
              <Parameters>
               <VectorParam id="958"  name="sourceCrop">
                <InterpolatingParam id="959" interp="linr"  time="0/1" value="0" leadInLength="0/1"  />
                <InterpolatingParam id="960" interp="linr"  time="0/1" value="0" leadInLength="0/1"  />
                <InterpolatingParam id="961" interp="linr"  time="0/1" value="0" leadInLength="0/1"  />
                <InterpolatingParam id="962" interp="linr"  time="0/1" value="0" leadInLength="0/1"  />
               </VectorParam>
               <VectorParam id="963"  name="geometryCrop">
                <InterpolatingParam id="964" interp="linr"  time="-9999999/1" value="0" leadInLength="0/1"  />
                <InterpolatingParam id="965" interp="linr"  time="-9999999/1" value="0" leadInLength="0/1"  />
                <InterpolatingParam id="966" interp="linr"  time="-9999999/1" value="0" leadInLength="0/1"  />
                <InterpolatingParam id="967" interp="linr"  time="-9999999/1" value="0" leadInLength="0/1"  />
               </VectorParam>
               <InterpolatingParam id="968" interp="linr"  time="-9999999/1" value="1" leadInLength="0/1"  name="opacity"/>
              </Parameters>
              <Attributes>
               <Attribute id="969" value="" name="ident"/>
              </Attributes>
              <MetaData>
               <entry key="WinSubProjectDisplayName" val=""/>
              </MetaData>
              <ExtraData>
               <Entry key="ZoomPanBin">
                <ZoomPanBin id="970"  >
                 <ZoomPanKeyframes>
                  <ZoomPanKeyframe id="971" timeRangeEnd="-9999999/1" timeRangeDuration="0/1" interpolaterName="linr"  />
                 </ZoomPanKeyframes>
                </ZoomPanBin>
               </Entry>
              </ExtraData>
             </IMFile>
            </Medias>
           </GenericTrack>
          </Tracks>
         </GenericMixer>
         <MetaData>
          <entry key="IsGroupExpanded" val="False"/>
          <entry key="WinSubProjectDisplayName" val=""/>
         </MetaData>
         <ExtraData>
          <Entry key="ZoomPanBin">
           <ZoomPanBin id="972"  >
            <ZoomPanKeyframes>
            </ZoomPanKeyframes>
           </ZoomPanBin>
          </Entry>
         </ExtraData>
        </Group>
        <VMFile id="973" start="760" duration="546" scalar="1/1" mediaStart="54/1" mediaDuration="546/1" trackNumber="0" src="12" >
         <Transformer>
          <VectorParam id="974"  name="translation">
           <InterpolatingParam id="975" interp="linr"  time="-9999999/1" value="415.55691911472115" leadInLength="0/1"  />
           <InterpolatingParam id="976" interp="linr"  time="-9999999/1" value="79.810431823665112" leadInLength="0/1"  />
           <InterpolatingParam id="977" interp="linr"  time="-9999999/1" value="0" leadInLength="0/1"  />
          </VectorParam>
          <VectorParam id="978"  name="rotation">
           <InterpolatingParam id="979" interp="linr"  time="-9999999/1" value="0" leadInLength="0/1"  />
           <InterpolatingParam id="980" interp="linr"  time="-9999999/1" value="0" leadInLength="0/1"  />
           <InterpolatingParam id="981" interp="linr"  time="-9999999/1" value="0" leadInLength="0/1"  />
          </VectorParam>
          <VectorParam id="982"  name="shear">
           <InterpolatingParam id="983" interp="linr"  time="-9999999/1" value="0" leadInLength="0/1"  />
           <InterpolatingParam id="984" interp="linr"  time="-9999999/1" value="0" leadInLength="0/1"  />
           <InterpolatingParam id="985" interp="linr"  time="-9999999/1" value="0" leadInLength="0/1"  />
          </VectorParam>
          <VectorParam id="986"  name="scale">
           <InterpolatingParam id="987" interp="linr"  time="-9999999/1" value="0.72966033379257822" leadInLength="0/1"  />
           <InterpolatingParam id="988" interp="linr"  time="-9999999/1" value="0.72966033379257911" leadInLength="0/1"  />
           <InterpolatingParam id="989" interp="linr"  time="-9999999/1" value="1" leadInLength="0/1"  />
          </VectorParam>
          <VectorParam id="990"  name="anchor">
           <InterpolatingParam id="991" interp="linr"  time="0/1" value="0" leadInLength="0/1"  />
           <InterpolatingParam id="992" interp="linr"  time="0/1" value="0" leadInLength="0/1"  />
           <InterpolatingParam id="993" interp="linr"  time="0/1" value="0" leadInLength="0/1"  />
          </VectorParam>
         </Transformer>
         <Parameters>
          <VectorParam id="994"  name="sourceCrop">
           <InterpolatingParam id="995" interp="linr"  time="0/1" value="0" leadInLength="0/1"  />
           <InterpolatingParam id="996" interp="linr"  time="0/1" value="0" leadInLength="0/1"  />
           <InterpolatingParam id="997" interp="linr"  time="0/1" value="0" leadInLength="0/1"  />
           <InterpolatingParam id="998" interp="linr"  time="0/1" value="0" leadInLength="0/1"  />
          </VectorParam>
          <VectorParam id="999"  name="geometryCrop">
           <InterpolatingParam id="1000" interp="linr"  time="-9999999/1" value="0" leadInLength="0/1"  />
           <InterpolatingParam id="1001" interp="linr"  time="-9999999/1" value="0" leadInLength="0/1"  />
           <InterpolatingParam id="1002" interp="linr"  time="-9999999/1" value="92.400599990683588" leadInLength="0/1"  />
           <InterpolatingParam id="1003" interp="linr"  time="-9999999/1" value="0" leadInLength="0/1"  />
          </VectorParam>
          <InterpolatingParam id="1004" interp="linr"  time="-9999999/1" value="1" leadInLength="0/1"  name="opacity"/>
         </Parameters>
         <Effects>
          <GenericEffect id="1005" name = "Colorize" >
           <Parameters>
           <InterpolatingParam id="1006" interp="linr"  time="0/1" value="0.75" leadInLength="0/1"   name="amount"/>
           <InterpolatingParam id="1007" interp="linr"  time="0/1" value="255" leadInLength="0/1"   name="color-alpha"/>
           <InterpolatingParam id="1008" interp="linr"  time="0/1" value="30" leadInLength="0/1"   name="color-blue"/>
           <InterpolatingParam id="1009" interp="linr"  time="0/1" value="23" leadInLength="0/1"   name="color-green"/>
           <InterpolatingParam id="1010" interp="linr"  time="0/1" value="163" leadInLength="0/1"   name="color-red"/>
           <Parameter id="1011"   name="enabled">
            <Keyframes>
            <Keyframe id="1012"  time="0/1" value="1" leadInLength="0/1"  />
            </Keyframes>
           </Parameter>
           <Parameter id="1013"   name="mode">
            <Keyframes>
            <Keyframe id="1014"  time="0/1" value="0" leadInLength="0/1"  />
            </Keyframes>
           </Parameter>
           </Parameters>
          </GenericEffect>
          <GenericEffect id="1015" name = "ChromaKey" >
           <Parameters>
           <InterpolatingParam id="1016" interp="linr"  time="0/1" value="0" leadInLength="0/1"   name="clrCompensation"/>
           <InterpolatingParam id="1017" interp="linr"  time="0/1" value="255" leadInLength="0/1"   name="color-alpha"/>
           <InterpolatingParam id="1018" interp="linr"  time="0/1" value="153" leadInLength="0/1"   name="color-blue"/>
           <InterpolatingParam id="1019" interp="linr"  time="0/1" value="103" leadInLength="0/1"   name="color-green"/>
           <InterpolatingParam id="1020" interp="linr"  time="0/1" value="102" leadInLength="0/1"   name="color-red"/>
           <InterpolatingParam id="1021" interp="linr"  time="0/1" value="0" leadInLength="0/1"   name="defringe"/>
           <Parameter id="1022"   name="enabled">
            <Keyframes>
            <Keyframe id="1023"  time="0/1" value="1" leadInLength="0/1"  />
            </Keyframes>
           </Parameter>
           <InterpolatingParam id="1024" interp="linr"  time="0/1" value="0" leadInLength="0/1"   name="invertEffect"/>
           <InterpolatingParam id="1025" interp="linr"  time="0/1" value="0.10000000000000001" leadInLength="0/1"   name="softness"/>
           <InterpolatingParam id="1026" interp="linr"  time="0/1" value="0.01" leadInLength="0/1"   name="tolerance"/>
           </Parameters>
          </GenericEffect>
         </Effects>
         <Attributes>
          <Attribute id="1027" value="" name="ident"/>
         </Attributes>
         <MetaData>
          <entry key="WinSubProjectDisplayName" val=""/>
         </MetaData>
         <ExtraData>
          <Entry key="ZoomPanBin">
           <ZoomPanBin id="1028"  >
            <ZoomPanKeyframes>
             <ZoomPanKeyframe id="1029" timeRangeEnd="-9999999/1" timeRangeDuration="0/1" interpolaterName="linr"  />
            </ZoomPanKeyframes>
           </ZoomPanBin>
          </Entry>
         </ExtraData>
        </VMFile>
       </Medias>
      </GenericTrack>
      <GenericTrack id="1030"  >
       <Attributes>
        <Attribute id="1031" value="" name="ident"/>
       </Attributes>
       <MetaData>
        <entry key="IsLocked" val="False"/>
        <entry key="WinTrackHeight" val="40.52272727272728"/>
       </MetaData>
       <Medias>
        <IMFile id="1032" start="760" duration="546" scalar="1/1" mediaStart="0/1" mediaDuration="1/1" trackNumber="0" src="5" trimStartSum="-15/1" >
         <Transformer>
          <VectorParam id="1033"  name="translation">
           <InterpolatingParam id="1034" interp="linr"  time="-9999999/1" value="371.66666666668692" leadInLength="0/1"  />
           <InterpolatingParam id="1035" interp="linr"  time="-9999999/1" value="-259.99999999996942" leadInLength="0/1"  />
           <InterpolatingParam id="1036" interp="linr"  time="-9999999/1" value="0" leadInLength="0/1"  />
          </VectorParam>
          <VectorParam id="1037"  name="rotation">
           <InterpolatingParam id="1038" interp="linr"  time="-9999999/1" value="0" leadInLength="0/1"  />
           <InterpolatingParam id="1039" interp="linr"  time="-9999999/1" value="0" leadInLength="0/1"  />
           <InterpolatingParam id="1040" interp="linr"  time="-9999999/1" value="0" leadInLength="0/1"  />
          </VectorParam>
          <VectorParam id="1041"  name="shear">
           <InterpolatingParam id="1042" interp="linr"  time="-9999999/1" value="0" leadInLength="0/1"  />
           <InterpolatingParam id="1043" interp="linr"  time="-9999999/1" value="0" leadInLength="0/1"  />
           <InterpolatingParam id="1044" interp="linr"  time="-9999999/1" value="0" leadInLength="0/1"  />
          </VectorParam>
          <VectorParam id="1045"  name="scale">
           <InterpolatingParam id="1046" interp="linr"  time="-9999999/1" value="1" leadInLength="0/1"  />
           <InterpolatingParam id="1047" interp="linr"  time="-9999999/1" value="1" leadInLength="0/1"  />
           <InterpolatingParam id="1048" interp="linr"  time="-9999999/1" value="1" leadInLength="0/1"  />
          </VectorParam>
          <VectorParam id="1049"  name="anchor">
           <InterpolatingParam id="1050" interp="linr"  time="0/1" value="0" leadInLength="0/1"  />
           <InterpolatingParam id="1051" interp="linr"  time="0/1" value="0" leadInLength="0/1"  />
           <InterpolatingParam id="1052" interp="linr"  time="0/1" value="0" leadInLength="0/1"  />
          </VectorParam>
         </Transformer>
         <Parameters>
          <VectorParam id="1053"  name="sourceCrop">
           <InterpolatingParam id="1054" interp="linr"  time="0/1" value="0" leadInLength="0/1"  />
           <InterpolatingParam id="1055" interp="linr"  time="0/1" value="0" leadInLength="0/1"  />
           <InterpolatingParam id="1056" interp="linr"  time="0/1" value="0" leadInLength="0/1"  />
           <InterpolatingParam id="1057" interp="linr"  time="0/1" value="0" leadInLength="0/1"  />
          </VectorParam>
          <VectorParam id="1058"  name="geometryCrop">
           <InterpolatingParam id="1059" interp="linr"  time="-9999999/1" value="0" leadInLength="0/1"  />
           <InterpolatingParam id="1060" interp="linr"  time="-9999999/1" value="0" leadInLength="0/1"  />
           <InterpolatingParam id="1061" interp="linr"  time="-9999999/1" value="0" leadInLength="0/1"  />
           <InterpolatingParam id="1062" interp="linr"  time="-9999999/1" value="0" leadInLength="0/1"  />
          </VectorParam>
          <InterpolatingParam id="1063" interp="linr"  time="-9999999/1" value="1" leadInLength="0/1"  name="opacity"/>
         </Parameters>
         <Attributes>
          <Attribute id="1064" value="" name="ident"/>
         </Attributes>
         <MetaData>
          <entry key="WinSubProjectDisplayName" val=""/>
         </MetaData>
         <ExtraData>
          <Entry key="ZoomPanBin">
           <ZoomPanBin id="1065"  >
            <ZoomPanKeyframes>
             <ZoomPanKeyframe id="1066" timeRangeEnd="-9999999/1" timeRangeDuration="0/1" interpolaterName="linr"  />
            </ZoomPanKeyframes>
           </ZoomPanBin>
          </Entry>
         </ExtraData>
        </IMFile>
       </Medias>
      </GenericTrack>
      <GenericTrack id="1067"  >
       <Attributes>
        <Attribute id="1068" value="" name="ident"/>
       </Attributes>
       <MetaData>
        <entry key="IsLocked" val="False"/>
        <entry key="WinTrackHeight" val="40.52272727272728"/>
       </MetaData>
       <Medias>
        <AMFile id="1069" start="210" duration="141" scalar="1/1" mediaStart="0/1" mediaDuration="141/1" trackNumber="0" src="13" channelNumber="0" >
         <Parameters>
          <InterpolatingParam id="1070" interp="linr"  time="0/1" value="1" leadInLength="0/1"  name="volume"/>
          <Parameter id="1071"  name="captions"/>
         </Parameters>
         <Attributes>
          <Attribute id="1072" value="" name="ident"/>
          <Attribute id="1073" value="22050" name="sampleRate"/>
          <Attribute id="1074" value="16" name="bitDepth"/>
          <Attribute id="1075" value="1" name="gain"/>
         </Attributes>
         <MetaData>
          <entry key="WinSubProjectDisplayName" val=""/>
         </MetaData>
        </AMFile>
        <AMFile id="1076" start="353" duration="236" scalar="1/1" mediaStart="0/1" mediaDuration="236/1" trackNumber="0" src="14" channelNumber="0" >
         <Parameters>
          <InterpolatingParam id="1077" interp="linr"  time="0/1" value="1" leadInLength="0/1"  name="volume"/>
          <Parameter id="1078"  name="captions"/>
         </Parameters>
         <Attributes>
          <Attribute id="1079" value="" name="ident"/>
          <Attribute id="1080" value="22050" name="sampleRate"/>
          <Attribute id="1081" value="16" name="bitDepth"/>
          <Attribute id="1082" value="1" name="gain"/>
         </Attributes>
         <MetaData>
          <entry key="WinSubProjectDisplayName" val=""/>
         </MetaData>
        </AMFile>
        <AMFile id="1083" start="589" duration="171" scalar="1/1" mediaStart="0/1" mediaDuration="171/1" trackNumber="0" src="15" channelNumber="0" >
         <Parameters>
          <InterpolatingParam id="1084" interp="linr"  time="0/1" value="1" leadInLength="0/1"  name="volume"/>
          <Parameter id="1085"  name="captions"/>
         </Parameters>
         <Attributes>
          <Attribute id="1086" value="" name="ident"/>
          <Attribute id="1087" value="22050" name="sampleRate"/>
          <Attribute id="1088" value="16" name="bitDepth"/>
          <Attribute id="1089" value="1" name="gain"/>
         </Attributes>
         <MetaData>
          <entry key="WinSubProjectDisplayName" val=""/>
         </MetaData>
        </AMFile>
        <AMFile id="1090" start="760" duration="546" scalar="1/1" mediaStart="0/1" mediaDuration="546/1" trackNumber="0" src="16" channelNumber="0" >
         <Parameters>
          <InterpolatingParam id="1091" interp="linr"  time="0/1" value="1" leadInLength="0/1"  name="volume"/>
          <Parameter id="1092"  name="captions"/>
         </Parameters>
         <Attributes>
          <Attribute id="1093" value="" name="ident"/>
          <Attribute id="1094" value="22050" name="sampleRate"/>
          <Attribute id="1095" value="16" name="bitDepth"/>
          <Attribute id="1096" value="1" name="gain"/>
         </Attributes>
         <MetaData>
          <entry key="WinSubProjectDisplayName" val=""/>
         </MetaData>
        </AMFile>
        <AMFile id="1097" start="1306" duration="363" scalar="1/1" mediaStart="0/1" mediaDuration="363/1" trackNumber="0" src="17" channelNumber="0" >
         <Parameters>
          <InterpolatingParam id="1098" interp="linr"  time="0/1" value="1" leadInLength="0/1"  name="volume"/>
          <Parameter id="1099"  name="captions"/>
         </Parameters>
         <Attributes>
          <Attribute id="1100" value="" name="ident"/>
          <Attribute id="1101" value="22050" name="sampleRate"/>
          <Attribute id="1102" value="16" name="bitDepth"/>
          <Attribute id="1103" value="1" name="gain"/>
         </Attributes>
         <MetaData>
          <entry key="WinSubProjectDisplayName" val=""/>
         </MetaData>
        </AMFile>
       </Medias>
      </GenericTrack>
      <GenericTrack id="1104"  >
       <Attributes>
        <Attribute id="1105" value="" name="ident"/>
       </Attributes>
       <MetaData>
        <entry key="IsLocked" val="False"/>
        <entry key="WinTrackHeight" val="40.52272727272728"/>
       </MetaData>
       <Medias>
        <Callout id="1106" start="833" duration="94" scalar="1/1" mediaStart="0/1" mediaDuration="94/1" >
         <Transformer>
          <VectorParam id="1107"  name="translation">
           <InterpolatingParam id="1108" interp="linr"  time="-9999999/1" value="-288.74373152544564" leadInLength="0/1"  />
           <InterpolatingParam id="1109" interp="linr"  time="-9999999/1" value="82.27689484960527" leadInLength="0/1"  />
           <InterpolatingParam id="1110" interp="linr"  time="-9999999/1" value="0" leadInLength="0/1"  />
          </VectorParam>
          <VectorParam id="1111"  name="rotation">
           <InterpolatingParam id="1112" interp="linr"  time="-9999999/1" value="0" leadInLength="0/1"  />
           <InterpolatingParam id="1113" interp="linr"  time="-9999999/1" value="0" leadInLength="0/1"  />
           <InterpolatingParam id="1114" interp="linr"  time="-9999999/1" value="-3.7706267139049441" leadInLength="0/1"  />
          </VectorParam>
          <VectorParam id="1115"  name="shear">
           <InterpolatingParam id="1116" interp="linr"  time="-9999999/1" value="0" leadInLength="0/1"  />
           <InterpolatingParam id="1117" interp="linr"  time="-9999999/1" value="0" leadInLength="0/1"  />
           <InterpolatingParam id="1118" interp="linr"  time="-9999999/1" value="0" leadInLength="0/1"  />
          </VectorParam>
          <VectorParam id="1119"  name="scale">
           <InterpolatingParam id="1120" interp="linr"  time="-9999999/1" value="0.87400081000969199" leadInLength="0/1"  />
           <InterpolatingParam id="1121" interp="linr"  time="-9999999/1" value="1.0000000000000002" leadInLength="0/1"  />
           <InterpolatingParam id="1122" interp="linr"  time="-9999999/1" value="1" leadInLength="0/1"  />
          </VectorParam>
          <VectorParam id="1123"  name="anchor">
           <InterpolatingParam id="1124" interp="linr"  time="0/1" value="0" leadInLength="0/1"  />
           <InterpolatingParam id="1125" interp="linr"  time="0/1" value="0" leadInLength="0/1"  />
           <InterpolatingParam id="1126" interp="linr"  time="0/1" value="0" leadInLength="0/1"  />
          </VectorParam>
         </Transformer>
         <Parameters>
          <VectorParam id="1127"  name="sourceCrop">
           <InterpolatingParam id="1128" interp="linr"  time="0/1" value="0" leadInLength="0/1"  />
           <InterpolatingParam id="1129" interp="linr"  time="0/1" value="0" leadInLength="0/1"  />
           <InterpolatingParam id="1130" interp="linr"  time="0/1" value="0" leadInLength="0/1"  />
           <InterpolatingParam id="1131" interp="linr"  time="0/1" value="0" leadInLength="0/1"  />
          </VectorParam>
          <VectorParam id="1132"  name="geometryCrop">
           <InterpolatingParam id="1133" interp="linr"  time="-9999999/1" value="0" leadInLength="0/1"  />
           <InterpolatingParam id="1134" interp="linr"  time="-9999999/1" value="0" leadInLength="0/1"  />
           <InterpolatingParam id="1135" interp="linr"  time="-9999999/1" value="0" leadInLength="0/1"  />
           <InterpolatingParam id="1136" interp="linr"  time="-9999999/1" value="0" leadInLength="0/1"  />
          </VectorParam>
          <InterpolatingParam id="1137" interp="linr"  time="-9999999/1" value="1" leadInLength="0/1"  name="opacity"/>
         </Parameters>
         <Effects>
          <GenericEffect id="1138" name = "DropShadow" >
           <Parameters>
           <InterpolatingParam id="1139" interp="linr"  time="0/1" value="315" leadInLength="0/1"   name="angle"/>
           <InterpolatingParam id="1140" interp="linr"  time="0/1" value="2" leadInLength="0/1"   name="blur"/>
           <Parameter id="1141"   name="enabled">
            <Keyframes>
            <Keyframe id="1142"  time="0/1" value="1" leadInLength="0/1"  />
            </Keyframes>
           </Parameter>
           <InterpolatingParam id="1143" interp="linr"  time="0/1" value="4" leadInLength="0/1"   name="offset"/>
           <InterpolatingParam id="1144" interp="linr"  time="0/1" value="1" leadInLength="0/1"   name="opacity"/>
           </Parameters>
          </GenericEffect>
         </Effects>
         <Attributes>
          <Attribute id="1145"  name="vectorNode">
           <VectorNode id="1146" kind="TypeWinSVG"  >
            <DoubleParameters>
             <InterpolatingParam id="1147" interp="linr"  time="0/1" value="1" leadInLength="0/1"  name="DrawTime"/>
             <InterpolatingParam id="1148" interp="linr"  time="0/1" value="0" leadInLength="0/1"  name="borderColorBlue"/>
             <InterpolatingParam id="1149" interp="linr"  time="0/1" value="0" leadInLength="0/1"  name="borderColorGreen"/>
             <InterpolatingParam id="1150" interp="linr"  time="0/1" value="255" leadInLength="0/1"  name="borderColorRed"/>
             <InterpolatingParam id="1151" interp="linr"  time="0/1" value="5" leadInLength="0/1"  name="borderWidth"/>
             <InterpolatingParam id="1152" interp="linr"  time="0/1" value="0" leadInLength="0/1"  name="flipOnXAxis"/>
             <InterpolatingParam id="1153" interp="linr"  time="0/1" value="0" leadInLength="0/1"  name="flipOnYAxis"/>
             <InterpolatingParam id="1154" interp="linr"  time="0/1" value="180" leadInLength="0/1"  name="height"/>
             <InterpolatingParam id="1155" interp="linr"  time="0/1" value="320" leadInLength="0/1"  name="width"/>
            </DoubleParameters>
            <StringParameters>
             <Parameter id="1156"  name="filename">
              <Keyframes>
              <Keyframe id="1157"  time="0/1" value="C:\Program Files (x86)\TechSmith\Camtasia Studio 8\Media\Studio\Callouts\anim_arrow.svg" leadInLength="0/1"  />
              </Keyframes>
             </Parameter>
             <Parameter id="1158"  name="name">
              <Keyframes>
              <Keyframe id="1159"  time="0/1" value="Sketch Motion Arrow" leadInLength="0/1"  />
              </Keyframes>
             </Parameter>
             <Parameter id="1160"  name="xmlContent">
              <Keyframes>
              <Keyframe id="1161"  time="0/1" value="﻿&lt;?xml version=&quot;1.0&quot; encoding=&quot;utf-8&quot;?&gt;&#xa;&lt;!-- Generator: Adobe Illustrator 13.0.2, SVG Export Plug-In . SVG Version: 6.00 Build 14948)  --&gt;&#xa;&lt;!DOCTYPE svg PUBLIC &quot;-//W3C//DTD SVG 1.1//EN&quot; &quot;http://www.w3.org/Graphics/SVG/1.1/DTD/svg11.dtd&quot;&gt;&#xa;&lt;svg version=&quot;1.1&quot; id=&quot;Layer_1&quot; xmlns=&quot;http://www.w3.org/2000/svg&quot; xmlns:xlink=&quot;http://www.w3.org/1999/xlink&quot; x=&quot;0px&quot; y=&quot;0px&quot;&#xa;&#x9; width=&quot;151.268px&quot; height=&quot;53px&quot; viewBox=&quot;0 0 151.268 53&quot; enable-background=&quot;new 0 0 151.268 53&quot; xml:space=&quot;preserve&quot;&gt;&#xa;&lt;path fill=&quot;none&quot; d=&quot;M12.852,24.926c0,0,85.25-8.838,118.688-2.996&quot;/&gt;&#xa;&lt;path fill=&quot;none&quot; d=&quot;M93.169,2.713c0,0,46.52,8.657,49.944,18.729c3.424,10.071-43.753,26.022-43.753,26.022&quot;/&gt;&#xa;&lt;/svg&gt;&#xa;" leadInLength="0/1"  />
              </Keyframes>
             </Parameter>
            </StringParameters>
           </VectorNode>
          </Attribute>
         </Attributes>
         <MetaData>
          <entry key="WinSubProjectDisplayName" val=""/>
         </MetaData>
         <LeftEdgeMods length="30/1" groupName="DrawPercentageFade">
          <EdgeMod parameter="1147">
           <FadeInFunc id="1162"  />
          </EdgeMod>
         </LeftEdgeMods>
         <RightEdgeMods length="30/1" groupName="OpacityFade">
          <EdgeMod parameter="1137">
           <FadeOutFunc id="1163"  />
          </EdgeMod>
         </RightEdgeMods>
         <ExtraData>
          <Entry key="ZoomPanBin">
           <ZoomPanBin id="1164"  >
            <ZoomPanKeyframes>
             <ZoomPanKeyframe id="1165" timeRangeEnd="-9999999/1" timeRangeDuration="0/1" interpolaterName="linr"  />
            </ZoomPanKeyframes>
           </ZoomPanBin>
          </Entry>
         </ExtraData>
        </Callout>
       </Medias>
      </GenericTrack>
      <GenericTrack id="1166"  >
       <Attributes>
        <Attribute id="1167" value="" name="ident"/>
       </Attributes>
       <MetaData>
        <entry key="IsLocked" val="False"/>
        <entry key="WinTrackHeight" val="40.52272727272728"/>
       </MetaData>
       <Medias>
       </Medias>
      </GenericTrack>
     </Tracks>
    </GenericMixer>
   <CaptionAttributes id="1168"  >
    <Attribute id="1169" value="1" name="captionsEnabled"/>
    <Attribute id="1170" value="Arial" name="captionsFontName"/>
    <Attribute id="1171" value="28" name="captionsFontSize"/>
    <Attribute id="1172" value="(0,0,0,255)" name="captionsBackgroundColor"/>
    <Attribute id="1173" value="(255,255,255,255)" name="captionsForegroundColor"/>
    <Attribute id="1174" value="en" name="lang"/>
    <Attribute id="1175" value="0" name="captionsAlignment"/>
    <Attribute id="1176" value="1" name="captionsDefaultFontSize"/>
    <Attribute id="1177" value="0.5" name="captionsOpacity"/>
    <Attribute id="1178" value="1" name="captionsBackgroundEnabled"/>
    <Attribute id="1179" value="1" name="captionsBackgroundOnlyAroundText"/>
   </CaptionAttributes>
   <Parameters>
    <VectorParam id="1180"  name="eyePosition">
     <InterpolatingParam id="1181" interp="linr"  time="0/1" value="0" leadInLength="0/1"  />
     <InterpolatingParam id="1182" interp="linr"  time="0/1" value="0" leadInLength="0/1"  />
     <InterpolatingParam id="1183" interp="linr"  time="0/1" value="3000" leadInLength="0/1"  />
    </VectorParam>
    <VectorParam id="1184"  name="eyeLookAtPosition">
     <InterpolatingParam id="1185" interp="linr"  time="0/1" value="0" leadInLength="0/1"  />
     <InterpolatingParam id="1186" interp="linr"  time="0/1" value="0" leadInLength="0/1"  />
     <InterpolatingParam id="1187" interp="linr"  time="0/1" value="0" leadInLength="0/1"  />
    </VectorParam>
    <VectorParam id="1188"  name="eyeUpVector">
     <InterpolatingParam id="1189" interp="linr"  time="0/1" value="0" leadInLength="0/1"  />
     <InterpolatingParam id="1190" interp="linr"  time="0/1" value="1" leadInLength="0/1"  />
     <InterpolatingParam id="1191" interp="linr"  time="0/1" value="0" leadInLength="0/1"  />
    </VectorParam>
    <InterpolatingParam id="1192" interp="linr"  time="0/1" value="0.23885785" leadInLength="0/1"  name="fov"/>
    <InterpolatingParam id="1193" interp="linr"  time="0/1" value="1.5" leadInLength="0/1"  name="nearClipDistance"/>
    <InterpolatingParam id="1194" interp="linr"  time="0/1" value="6000" leadInLength="0/1"  name="farClipDistance"/>
   </Parameters>
  </Timeline>
 </Project>
</GoProject>
</CSMLData>

</Project_Data>
